<?xml version="1.0" standalone="no"?>
<!DOCTYPE svg PUBLIC "-//W3C//DTD SVG 20010904//EN"
 "http://www.w3.org/TR/2001/REC-SVG-20010904/DTD/svg10.dtd">
<svg version="1.0" xmlns="http://www.w3.org/2000/svg"
 width="1047.000000pt" height="216.000000pt" viewBox="0 0 1047.000000 216.000000"
 preserveAspectRatio="xMidYMid meet">
<metadata>
Created by potrace 1.15, written by Peter Selinger 2001-2017
</metadata>
<g transform="translate(0.000000,216.000000) scale(0.100000,-0.100000)"
fill="#272324" stroke="none">
<path d="M9345 2079 c-27 -5 -78 -7 -112 -3 l-63 6 0 -166 0 -166 -545 0
c-528 0 -545 -1 -555 -19 -15 -30 -12 -262 4 -283 10 -14 28 -18 70 -18 l56 0
0 -620 0 -620 -38 0 c-23 0 -47 -7 -58 -18 -39 -35 -55 -103 -34 -143 10 -19
34 -19 1135 -19 l1125 0 0 65 c0 55 -3 68 -25 90 -19 18 -36 25 -65 25 l-40 0
0 620 0 619 63 3 62 3 0 155 0 155 -547 3 -548 2 0 30 c0 27 3 30 33 30 17 0
48 5 67 11 19 6 62 14 95 17 l60 7 3 113 3 112 -26 10 c-30 11 -50 11 -120 -1z
m85 -112 l0 -63 -57 -12 c-121 -27 -131 -27 -138 0 -4 14 -5 44 -3 68 3 42 3
43 43 45 22 2 58 7 80 13 76 18 75 19 75 -51z m840 -377 l0 -100 -1070 0
-1070 0 0 100 0 100 1070 0 1070 0 0 -100z m-130 -780 l0 -620 -325 0 -325 0
0 251 c0 228 -2 253 -17 265 -23 17 -513 20 -544 4 -18 -10 -19 -24 -19 -265
l0 -255 -325 0 -325 0 0 620 0 620 940 0 940 0 0 -620z m-710 -390 l0 -230
-230 0 -230 0 0 230 0 230 230 0 230 0 0 -230z m838 -322 l3 -28 -1070 0
-1071 0 0 23 c0 13 3 27 7 30 3 4 484 6 1067 5 l1061 -3 3 -27z"/>
<path d="M8330 1281 c-5 -11 -10 -49 -10 -84 0 -84 14 -97 101 -97 90 1 99 10
99 102 0 44 -5 79 -12 86 -7 7 -43 12 -90 12 -66 0 -79 -3 -88 -19z"/>
<path d="M8597 1294 c-12 -13 -8 -169 5 -182 17 -17 142 -16 157 2 8 9 11 45
9 98 l-3 83 -80 3 c-45 1 -84 0 -88 -4z"/>
<path d="M8852 1288 c-7 -7 -12 -42 -12 -86 0 -92 9 -101 101 -102 86 0 99 13
99 99 0 95 -6 101 -98 101 -47 0 -83 -5 -90 -12z"/>
<path d="M9112 1288 c-7 -7 -12 -42 -12 -86 0 -92 9 -101 101 -102 86 0 99 13
99 101 -1 90 -10 99 -102 99 -44 0 -79 -5 -86 -12z"/>
<path d="M9377 1294 c-4 -4 -7 -47 -7 -95 0 -100 -1 -99 95 -99 41 0 66 5 74
14 8 9 11 45 9 98 l-3 83 -80 3 c-45 1 -84 0 -88 -4z"/>
<path d="M9632 1288 c-7 -7 -12 -42 -12 -86 0 -92 9 -101 101 -102 48 0 70 4
79 15 18 21 16 165 -2 176 -20 13 -152 11 -166 -3z"/>
<path d="M9892 1288 c-7 -7 -12 -43 -12 -90 0 -66 3 -79 19 -88 27 -14 144
-13 159 2 12 12 17 143 6 172 -5 13 -22 16 -83 16 -47 0 -82 -5 -89 -12z"/>
<path d="M8400 1030 l-75 -5 -3 -65 c-5 -111 -6 -110 98 -110 104 0 103 -1 98
109 -4 76 -7 78 -118 71z"/>
<path d="M9443 1032 l-73 -3 0 -89 0 -90 90 0 90 0 0 89 c0 102 5 98 -107 93z"/>
<path d="M9639 1028 c-18 -7 -20 -16 -17 -90 l3 -83 90 0 90 0 5 60 c3 33 3
72 1 87 -3 26 -5 27 -78 30 -41 2 -83 0 -94 -4z"/>
<path d="M8590 940 l0 -90 90 0 90 0 0 90 0 90 -90 0 -90 0 0 -90z"/>
<path d="M8847 1023 c-9 -8 -9 -136 -1 -157 5 -13 23 -16 94 -16 101 0 100 -1
100 90 0 91 1 90 -99 90 -48 0 -91 -3 -94 -7z"/>
<path d="M9107 1023 c-9 -8 -9 -136 -1 -157 5 -13 23 -16 89 -16 99 0 107 6
105 87 -3 97 1 93 -99 93 -48 0 -91 -3 -94 -7z"/>
<path d="M9880 953 c0 -43 4 -84 9 -91 5 -9 31 -12 92 -10 l84 3 6 75 c4 44 2
80 -4 88 -6 8 -39 12 -98 12 l-89 0 0 -77z"/>
<path d="M8332 768 c-12 -12 -17 -134 -6 -162 5 -13 23 -16 88 -16 50 0 87 5
94 12 18 18 16 146 -2 164 -18 18 -156 20 -174 2z"/>
<path d="M8597 774 c-4 -4 -7 -47 -7 -96 l0 -88 90 0 91 0 -3 93 -3 92 -80 3
c-45 1 -84 0 -88 -4z"/>
<path d="M9632 768 c-7 -7 -12 -42 -12 -89 0 -61 3 -78 16 -83 25 -10 162 -7
169 4 8 14 9 155 1 168 -10 16 -158 16 -174 0z"/>
<path d="M9892 768 c-14 -14 -17 -164 -3 -172 17 -11 162 -9 173 2 11 11 14
127 3 161 -6 19 -14 21 -84 21 -46 0 -82 -5 -89 -12z"/>
<path d="M8332 508 c-16 -16 -16 -152 1 -166 15 -12 133 -18 165 -8 20 7 22
13 22 85 0 46 -5 82 -12 89 -7 7 -42 12 -88 12 -46 0 -81 -5 -88 -12z"/>
<path d="M8590 432 c0 -48 4 -92 9 -98 6 -5 45 -7 88 -4 l78 5 0 90 0 90 -87
3 -88 3 0 -89z"/>
<path d="M9632 508 c-7 -7 -12 -41 -12 -89 0 -90 -1 -89 100 -89 91 0 96 6 90
106 l-5 79 -80 3 c-54 2 -84 -1 -93 -10z"/>
<path d="M9892 508 c-7 -7 -12 -43 -12 -90 0 -91 0 -91 115 -86 l70 3 5 70 c3
39 1 80 -4 93 -8 20 -16 22 -86 22 -46 0 -81 -5 -88 -12z"/>
</g>
<g transform="translate(0.000000,216.000000) scale(0.100000,-0.100000)"
fill="#bf4565" stroke="none">
<path d="M4445 1670 c-4 -12 -7 -86 -7 -165 l1 -144 -41 -33 c-23 -18 -56 -45
-73 -60 l-33 -28 -380 0 -380 0 -22 -47 c-12 -27 -35 -74 -51 -106 -16 -31
-29 -64 -29 -72 0 -8 -4 -15 -9 -15 -5 0 -12 -12 -15 -26 -8 -30 8 -54 35 -54
18 0 19 -15 19 -365 0 -257 -3 -365 -11 -365 -45 0 -71 -147 -30 -170 21 -11
2066 -15 2095 -4 12 5 16 21 16 75 0 64 -2 70 -30 91 l-30 22 0 357 0 357 30
6 c40 8 39 35 -4 123 -18 37 -46 96 -62 130 l-29 63 -380 0 -380 0 -32 28
c-18 15 -51 42 -73 61 -30 25 -40 40 -40 62 0 28 2 29 48 29 26 0 71 6 99 13
29 8 58 10 66 5 28 -15 38 17 38 119 0 54 0 106 0 117 -1 17 -7 18 -88 11
-115 -9 -152 -9 -185 0 -21 6 -27 3 -33 -15z m255 -100 c0 -57 -1 -60 -27 -65
-16 -3 -42 -10 -59 -15 -17 -6 -49 -10 -72 -10 l-42 0 0 65 0 65 48 0 c26 0
54 5 62 10 8 5 32 10 53 10 l37 0 0 -60z m-208 -278 c2 -4 26 -25 53 -47 28
-22 52 -42 55 -45 3 -3 37 -30 75 -60 39 -30 73 -59 77 -65 4 -5 8 -202 8
-437 l0 -428 -65 0 -65 0 0 125 c0 166 -16 207 -99 248 -19 9 -46 17 -61 17
-45 0 -108 -38 -135 -80 -23 -37 -25 -48 -25 -175 l0 -135 -65 0 -65 0 0 433
0 433 52 39 c28 22 56 44 62 50 9 8 79 64 124 100 7 5 18 15 25 22 14 14 44
17 49 5z m-303 -133 c-13 -12 -34 -28 -46 -36 -20 -13 -23 -24 -23 -74 l0 -59
-319 0 c-314 0 -319 0 -314 20 3 11 9 20 14 20 5 0 9 5 9 11 0 6 14 40 31 75
l32 64 316 2 c174 2 318 2 320 1 2 -2 -7 -12 -20 -24z m1195 -16 c5 -18 13
-33 17 -33 5 0 9 -8 9 -18 0 -10 6 -26 14 -37 7 -11 16 -30 20 -42 l7 -23
-310 0 -311 0 0 48 c-1 42 -17 82 -33 82 -3 0 -22 15 -41 33 l-36 32 327 -5
327 -5 10 -32z m-1264 -578 l0 -355 -300 0 -300 0 0 355 0 355 300 0 300 0 0
-355z m1290 0 l0 -355 -289 0 -290 0 -3 28 c-2 15 -2 174 0 355 l3 327 289 0
290 0 0 -355z m-892 -41 c12 -4 22 -12 22 -19 0 -7 7 -18 15 -25 12 -10 15
-39 15 -141 l0 -129 -101 0 -101 0 4 134 c3 126 4 136 27 160 25 26 67 33 119
20z m952 -420 l0 -34 -1006 0 -1005 0 3 33 3 32 985 5 c542 3 993 3 1003 1 12
-2 17 -13 17 -37z"/>
<path d="M4420 1042 c0 -4 -10 -12 -22 -17 -12 -6 -30 -23 -39 -40 -18 -32
-25 -105 -10 -105 5 0 11 -10 15 -23 7 -31 87 -71 123 -62 68 17 120 89 109
148 -12 60 -72 107 -136 107 -22 0 -40 -3 -40 -8z"/>
<path d="M3602 778 c-15 -15 -16 -132 -2 -159 9 -16 22 -19 85 -19 95 0 105 9
105 95 0 96 1 95 -94 95 -50 0 -87 -5 -94 -12z"/>
<path d="M3860 771 c-5 -11 -10 -49 -10 -85 0 -54 3 -67 19 -76 27 -14 154
-13 169 2 7 7 12 41 12 83 0 42 -5 76 -12 83 -7 7 -43 12 -90 12 -66 0 -79 -3
-88 -19z"/>
<path d="M3602 518 c-16 -16 -16 -150 0 -166 16 -16 160 -16 176 0 7 7 12 41
12 83 0 42 -5 76 -12 83 -16 16 -160 16 -176 0z"/>
<path d="M3862 518 c-16 -16 -16 -150 0 -166 16 -16 160 -16 176 0 7 7 12 41
12 83 0 42 -5 76 -12 83 -16 16 -160 16 -176 0z"/>
<path d="M4899 733 c0 -32 -2 -67 -4 -77 -8 -44 11 -56 88 -56 40 0 78 4 85 9
9 5 12 31 10 92 l-3 84 -87 3 -88 3 -1 -58z"/>
<path d="M5157 784 c-4 -4 -7 -44 -7 -90 0 -65 3 -83 16 -88 23 -9 147 -7 162
3 9 5 12 31 10 92 l-3 84 -85 3 c-47 1 -89 0 -93 -4z"/>
<path d="M5214 532 c-67 -10 -64 -6 -64 -91 0 -55 4 -82 14 -90 9 -8 43 -11
93 -9 l78 3 3 84 c2 71 0 86 -14 94 -17 10 -74 14 -110 9z"/>
<path d="M4907 524 c-4 -4 -7 -47 -7 -96 l0 -89 88 3 87 3 0 90 0 90 -80 3
c-45 1 -84 0 -88 -4z"/>
</g>
<g transform="translate(0.000000,216.000000) scale(0.100000,-0.100000)"
fill="#bf214b" stroke="none">
<path d="M6797 1802 c-14 -16 -17 -43 -17 -169 l0 -151 -177 -118 c-98 -64
-185 -125 -194 -134 -10 -10 -16 -34 -16 -66 l0 -49 -189 -6 c-104 -3 -190 -6
-191 -7 -2 -1 -4 -86 -5 -189 l-3 -188 -40 -3 c-22 -1 -50 -5 -62 -7 l-23 -5
0 -344 c0 -295 2 -345 15 -350 28 -10 1826 -6 1846 4 18 10 19 26 19 347 0
381 4 362 -82 363 l-48 0 0 178 c0 125 -4 182 -12 190 -8 8 -66 12 -195 12
l-182 0 -3 58 -3 57 -190 127 c-183 123 -190 129 -193 164 -3 31 -1 35 15 30
10 -3 54 0 98 8 44 7 91 13 105 12 l25 -1 0 125 0 125 -52 3 c-30 2 -66 -3
-88 -13 -46 -19 -84 -19 -109 0 -25 19 -29 19 -49 -3z m243 -107 l0 -65 -29 0
c-17 0 -32 -4 -35 -9 -7 -11 -91 -22 -111 -15 -11 5 -15 22 -15 68 l0 61 54 2
c30 0 63 6 73 12 10 6 28 11 41 11 21 0 22 -4 22 -65z m-44 -381 l174 -116 0
-564 0 -564 -64 0 -65 0 -3 187 -3 188 -29 41 c-59 81 -145 118 -238 100 -41
-8 -118 -55 -118 -73 0 -7 -4 -13 -9 -13 -5 0 -18 -15 -27 -32 -15 -27 -19
-64 -22 -216 l-4 -183 -61 3 -62 3 -3 557 -2 556 24 19 c13 10 34 25 46 33 12
8 33 23 45 33 13 9 26 17 29 17 4 0 16 8 27 18 10 11 32 25 47 33 15 8 36 22
46 31 11 10 32 24 48 30 15 7 28 16 28 20 0 19 32 1 196 -108z m-606 -429 l0
-165 -160 0 -160 0 0 165 0 165 160 0 160 0 0 -165z m1170 5 l0 -160 -92 -1
c-51 0 -123 -3 -160 -5 l-68 -4 0 165 0 165 160 0 160 0 0 -160z m-1170 -515
c0 -157 1 -288 3 -292 2 -9 -406 -17 -439 -9 l-23 6 0 281 c0 155 2 286 5 290
3 5 106 9 230 9 l224 0 0 -285z m1294 279 c13 -5 15 -45 16 -289 0 -256 -1
-283 -16 -289 -10 -4 -113 -6 -231 -6 l-213 1 0 295 0 294 214 0 c118 0 221
-3 230 -6z m-796 -141 c33 -21 52 -40 75 -75 14 -23 17 -53 17 -197 l0 -169
-165 0 -165 1 0 164 c0 194 8 219 90 275 33 22 113 23 148 1z"/>
<path d="M6666 1094 c-23 -23 -23 -265 0 -288 12 -13 41 -16 153 -16 93 0 141
4 149 12 8 8 12 56 12 150 0 126 -2 138 -19 148 -11 5 -78 10 -150 10 -104 0
-133 -3 -145 -16z m254 -144 l0 -101 -105 2 -105 1 0 99 0 99 105 0 105 0 0
-100z"/>
<path d="M6147 973 c-4 -3 -7 -43 -7 -89 0 -95 -1 -94 100 -94 56 0 71 3 78
18 7 14 9 100 3 160 -1 8 -25 12 -84 12 -46 0 -87 -3 -90 -7z"/>
<path d="M7310 891 c0 -102 -1 -101 90 -101 91 0 90 -1 90 101 l0 89 -90 0
-90 0 0 -89z"/>
<path d="M6050 481 c-11 -21 -14 -199 -4 -225 5 -13 26 -16 125 -16 l119 0 0
124 c0 104 -3 125 -16 130 -9 3 -60 6 -114 6 -88 0 -100 -2 -110 -19z m180
-111 l0 -71 -62 3 -63 3 -3 44 c-6 83 0 91 68 91 l60 0 0 -70z"/>
<path d="M7352 492 c-9 -7 -12 -39 -10 -128 l3 -119 113 -3 c82 -2 116 1 125
10 12 13 15 141 4 203 -3 17 -6 33 -6 38 -1 10 -213 9 -229 -1z m178 -127 l0
-65 -65 0 -65 0 0 64 0 63 65 2 65 1 0 -65z"/>
</g>
<g transform="translate(0.000000,216.000000) scale(0.100000,-0.100000)"
fill="#f2d0de" stroke="none">
<path d="M2420 1443 c-14 -2 -29 -9 -34 -14 -13 -12 -103 -12 -111 1 -10 16
-42 12 -49 -6 -3 -9 -6 -82 -6 -162 l0 -147 -45 -41 c-25 -23 -49 -44 -54 -46
-11 -4 -75 -55 -112 -90 -16 -16 -33 -28 -37 -28 -4 0 -22 -14 -39 -31 -30
-27 -33 -35 -33 -90 l0 -59 -195 0 -195 0 0 -344 c0 -287 2 -346 14 -356 11
-8 72 -11 223 -8 208 3 208 3 230 28 28 31 28 40 3 40 -20 0 -20 7 -20 368 0
363 0 368 21 382 12 8 27 20 33 25 6 6 43 35 81 65 39 30 72 57 75 60 18 20
90 70 90 63 0 -5 30 -31 66 -58 36 -26 74 -56 83 -64 9 -9 42 -36 74 -60 l57
-43 0 -164 c0 -89 4 -165 9 -168 4 -3 6 -18 3 -32 -5 -28 17 -54 45 -54 18 0
17 113 -1 148 -12 24 -12 30 0 47 8 10 14 29 14 42 0 22 4 23 70 23 39 0 79 5
90 12 15 10 26 10 53 0 60 -22 75 -10 35 28 -19 18 -35 20 -135 20 l-113 0 0
58 c0 53 -2 59 -36 87 -20 17 -45 38 -57 47 -11 10 -23 18 -27 18 -3 0 -19 13
-36 28 -16 15 -58 50 -94 77 -78 60 -81 63 -78 95 3 21 9 25 38 26 19 1 55 7
80 13 25 5 64 10 86 11 29 0 44 5 48 16 9 24 7 207 -3 222 -9 15 -71 23 -111
15z m60 -116 l0 -63 -47 -14 c-27 -8 -70 -14 -98 -15 l-50 0 -3 63 -3 62 48 1
c26 0 66 6 88 14 65 21 65 21 65 -48z m-580 -947 l0 -290 -165 0 -165 0 0 290
0 290 165 0 165 0 0 -290z"/>
<path d="M1644 529 c-8 -13 -7 -286 1 -300 9 -14 159 -11 173 3 8 8 12 56 12
148 0 92 -4 140 -12 148 -15 15 -164 16 -174 1z"/>
<path d="M2174 832 c-25 -21 -54 -74 -54 -98 0 -33 33 -91 60 -108 16 -9 50
-16 77 -16 41 0 54 5 80 31 35 33 48 74 38 118 -3 17 -20 44 -38 60 -27 27
-38 31 -86 31 -39 -1 -63 -6 -77 -18z"/>
<path d="M2910 700 c0 -6 9 -20 20 -32 14 -15 17 -25 10 -39 -6 -10 -10 -131
-10 -278 l0 -261 -160 0 -160 0 0 138 c0 122 -2 141 -18 155 -38 34 -49 19
-27 -35 5 -13 2 -18 -9 -18 -14 0 -16 -16 -16 -120 l0 -120 -65 0 -65 0 0 60
c0 33 -4 59 -9 58 -4 -2 -18 8 -29 22 l-21 25 -1 -82 0 -83 -65 0 c-55 0 -68
-3 -89 -25 -14 -14 -34 -25 -46 -25 -11 0 -30 11 -42 25 -25 29 -81 37 -57 8
8 -9 13 -24 11 -34 -3 -17 20 -18 448 -18 340 -1 455 2 470 12 19 11 20 24 20
329 l0 318 -36 15 c-43 18 -54 19 -54 5z"/>
<path d="M2779 538 c-10 -31 -7 -58 6 -58 12 0 15 -17 15 -100 l0 -100 -30 0
-30 0 0 86 c0 75 -2 85 -16 80 -9 -4 -23 -1 -31 5 -12 10 -13 -6 -11 -107 l3
-119 85 0 85 0 3 158 3 157 -41 0 c-22 0 -40 -1 -41 -2z"/>
<path d="M2192 464 c-76 -33 -102 -86 -102 -211 l0 -93 28 6 c15 4 29 9 32 11
2 2 5 42 6 88 2 122 31 156 120 142 42 -7 73 -41 74 -82 0 -26 42 -105 55
-105 3 0 5 30 4 68 0 37 -3 61 -6 55 -10 -26 -22 -12 -13 13 14 36 -16 75 -79
107 -40 20 -74 20 -119 1z"/>
</g>
<g transform="translate(0.000000,216.000000) scale(0.100000,-0.100000)"
fill="#8c8c8c" stroke="none">
<path d="M510 1443 c-14 -2 -29 -9 -34 -14 -13 -12 -103 -12 -111 1 -10 16
-42 12 -49 -6 -3 -9 -6 -82 -6 -162 l0 -147 -45 -41 c-25 -23 -49 -44 -54 -46
-11 -4 -75 -55 -112 -90 -16 -16 -33 -28 -37 -28 -4 0 -22 -14 -40 -31 -29
-27 -32 -36 -32 -90 -1 -32 -1 -218 -1 -411 l-1 -353 28 -1 c18 -1 35 8 50 25
29 32 30 41 4 41 -20 0 -20 7 -20 368 0 363 0 368 21 382 12 8 27 20 33 25 6
6 43 35 81 65 39 30 72 57 75 60 18 20 90 70 90 63 0 -5 30 -31 66 -58 36 -26
74 -56 83 -64 9 -9 42 -36 74 -60 l57 -43 0 -164 c0 -89 4 -165 9 -168 4 -3 6
-18 3 -32 -5 -26 16 -54 40 -54 12 0 10 138 -2 160 -7 13 -7 21 0 25 6 4 10
58 10 131 0 107 -2 126 -18 142 -29 27 -65 55 -94 74 -15 10 -35 26 -45 36
-10 10 -47 41 -83 68 -78 59 -81 62 -78 94 3 21 9 25 38 26 19 1 55 7 80 13
25 5 64 10 86 11 29 0 44 5 48 16 9 24 7 207 -3 222 -9 15 -71 23 -111 15z
m60 -116 l0 -63 -47 -14 c-27 -8 -70 -14 -98 -15 l-50 0 -3 63 -3 62 48 1 c26
0 66 6 88 14 65 21 65 21 65 -48z"/>
<path d="M264 832 c-25 -21 -54 -74 -54 -98 0 -33 33 -91 60 -108 16 -9 50
-16 77 -16 41 0 54 5 80 31 55 53 55 125 0 178 -27 27 -38 31 -86 31 -39 -1
-63 -6 -77 -18z"/>
<path d="M282 464 c-76 -33 -102 -86 -102 -211 l0 -93 28 6 c15 4 29 9 32 11
2 2 5 42 6 88 2 122 31 156 120 142 42 -7 73 -41 74 -82 0 -26 42 -105 55
-105 3 0 5 30 4 68 0 37 -3 61 -6 55 -10 -26 -22 -12 -13 13 14 36 -16 75 -79
107 -40 20 -74 20 -119 1z"/>
<path d="M643 383 c2 -10 8 -26 12 -35 5 -13 2 -18 -9 -18 -14 0 -16 -16 -16
-120 l0 -120 -65 0 -65 0 0 60 c0 33 -4 59 -9 57 -4 -1 -18 9 -29 23 l-21 25
-1 -82 0 -83 -65 0 c-55 0 -68 -3 -89 -25 -14 -14 -34 -25 -46 -25 -11 0 -30
11 -42 25 -25 29 -81 37 -57 8 8 -9 13 -24 11 -34 -3 -16 16 -17 268 -18 l270
-2 0 179 c0 180 -4 202 -38 202 -9 0 -12 -7 -9 -17z"/>
</g>
</svg>
