<?xml version="1.0" encoding="UTF-8"?>
<svg width="525px" height="75px" viewBox="0 0 525 75" version="1.1" xmlns="http://www.w3.org/2000/svg" xmlns:xlink="http://www.w3.org/1999/xlink">
    <g id="chakras" stroke="none" stroke-width="1" fill="none" fill-rule="evenodd">
        <path d="M465.651958,59.3578895 L509.348042,59.3578895 L509.348042,15.6545545 L465.651958,15.6545545 L465.651958,59.3578895 Z M511.550265,13.3897461 C505.914068,7.76505724 498.299602,4.09407666 489.839084,3.52165256 C494.666556,0.460428074 501.11148,0.871080139 507.680823,1.30662021 C513.640511,1.67994027 519.687293,2.07814833 525,0.012444002 C523.108825,5.07715281 523.506967,10.8885017 523.905109,16.6749627 C524.365461,23.4071677 524.825813,30.1269288 521.478932,35.2040816 C520.919044,26.7297163 517.248673,19.1015431 511.612475,13.4519662 L511.612475,13.3897461 L511.550265,13.3897461 Z M494.467485,38.0786461 L500.464499,27.7003484 L501.43497,26.0079642 L499.481586,26.0079642 L487.5,26.0079642 L475.518414,26.0079642 L473.552588,26.0079642 L474.535501,27.7003484 L480.532515,38.0786461 L486.517087,48.4569438 L487.5,50.149328 L488.482913,48.4569438 L494.467485,38.0786461 Z M487.5,45.6321553 L492.514101,36.9462419 L497.51576,28.2727725 L487.5,28.2727725 L477.471798,28.2727725 L482.485899,36.9462419 L487.5,45.6321553 Z M466.771732,13.3897461 L508.228268,13.3897461 C502.666722,8.61124938 495.437956,5.72424092 487.537326,5.71179691 L487.524884,5.71179691 L487.512442,5.71179691 L487.5,5.71179691 L487.487558,5.71179691 L487.475116,5.71179691 L487.462674,5.71179691 C479.549602,5.72424092 472.333278,8.61124938 466.771732,13.3897461 Z M485.1858,3.52165256 C468.202555,4.65405674 454.665727,18.1806869 453.521068,35.1667496 C450.460352,30.3384769 450.870936,23.8924838 451.293962,17.3220508 C451.679662,11.3613738 452.065362,5.31358885 450,0 C455.076311,1.8914883 460.874253,1.49328024 466.672196,1.09507218 C473.403285,0.634644102 480.109489,0.174216028 485.1858,3.52165256 Z M463.387525,58.2379293 L463.387525,16.7869587 C458.609821,22.3369836 455.710849,29.5669487 455.698407,37.46889 L455.698407,37.481334 L455.698407,37.493778 L455.698407,37.506222 L455.698407,37.518666 L455.698407,37.543554 L455.698407,37.555998 C455.710849,45.4454953 458.609821,52.6879044 463.387525,58.2379293 Z M463.437293,61.6226979 C469.098374,67.2598308 476.725282,70.9308113 485.1858,71.4907914 C480.109489,74.838228 473.403285,74.3902439 466.672196,73.9298158 C460.874253,73.5191638 455.076311,73.1333997 450,75 C452.065362,69.7112992 451.679662,63.6510702 451.293962,57.6903932 C450.870936,51.1324042 450.460352,44.6864111 453.521068,39.8581384 C454.093397,48.3076157 457.751327,55.9233449 463.387525,61.5604778 L463.387525,61.6226979 L463.437293,61.6226979 Z M508.228268,61.6226979 L466.771732,61.6226979 C472.333278,66.4011946 479.549602,69.3006471 487.462674,69.3006471 L487.475116,69.3006471 L487.487558,69.3006471 L487.5,69.3006471 L487.512442,69.3006471 L487.524884,69.3006471 L487.537326,69.3006471 C495.437956,69.3006471 502.666722,66.4011946 508.228268,61.6226979 Z M511.612475,61.5604778 C517.248673,55.9109009 520.919044,48.2951717 521.478932,39.8208064 C524.825813,44.8979592 524.365461,51.6177203 523.905109,58.3499253 C523.506967,64.1363863 523.108825,69.9477352 525,75 C519.687293,72.9467397 513.640511,73.3449477 507.680823,73.7182678 C501.11148,74.1413639 494.666556,74.5520159 489.839084,71.4907914 C498.299602,70.9183673 505.914068,67.2598308 511.550265,61.6226979 L511.612475,61.6226979 L511.612475,61.5604778 Z M519.289151,37.555998 L519.289151,37.543554 L519.289151,37.518666 L519.289151,37.506222 L519.289151,37.493778 L519.289151,37.481334 L519.289151,37.46889 C519.276709,29.5669487 516.390179,22.3369836 511.612475,16.7869587 L511.612475,58.2379293 C516.390179,52.6879044 519.276709,45.4454953 519.289151,37.555998 Z" id="Fill-15" fill="#F59895"></path>
        <path d="M49.6530516,16.4432177 C52.6099984,15.0118297 55.7561899,14.2665615 58.866898,14.1719243 C58.7013089,10.9660883 57.7905693,7.83123028 56.2411292,5.02760252 C53.0357988,5.08675079 49.8777795,5.86750789 47.015455,7.32255521 C48.4821006,10.0788644 49.404668,13.1664038 49.6530516,16.4432177 M58.5475477,25.3391167 C61.8238448,25.5875394 64.9227251,26.522082 67.6667718,27.9771293 C69.1215897,25.1143533 69.9022236,21.955836 69.9731903,18.75 C67.1581769,17.1884858 64.0238133,16.3012618 60.8303107,16.123817 C60.7238606,19.2468454 59.97871,22.3817035 58.5475477,25.3391167 M47.9735058,27.0189274 C50.5874468,25.942429 53.4261158,25.3272871 56.418546,25.2799685 C57.9798139,22.3580442 58.7722757,19.2231861 58.8905535,16.1001577 C55.7798455,16.2184543 52.633654,17.0228707 49.7121905,18.5843849 C49.6648794,21.5654574 49.0498344,24.4164038 47.9735058,27.0189274 M61.812017,37.5 C64.5324081,35.6545741 66.7323766,33.3004732 68.3882668,30.6506309 C71.0731746,32.4132492 73.332282,34.7436909 75,37.5 C73.332282,40.2563091 71.0731746,42.5867508 68.3882668,44.3493691 C66.7323766,41.6995268 64.5324081,39.3572555 61.812017,37.5 M51.8057089,33.6671924 C54.0529885,31.9518927 56.0045734,29.7870662 57.5421858,27.2200315 C60.8421385,27.3383281 63.9646743,28.2137224 66.7205488,29.6687697 C65.0646586,32.3067823 62.7937234,34.6253943 59.9905378,36.376183 C57.3765968,34.9211356 54.6088945,34.0339117 51.8057089,33.6671924 M43.3843242,34.1048896 C44.6025863,32.8154574 45.678915,31.3840694 46.5778268,29.8343849 C49.1681123,28.4029968 52.1014036,27.5039432 55.2121117,27.2791798 C53.4497713,29.8580442 51.2024917,31.9400631 48.6713452,33.4660883 C46.8853493,33.4660883 45.1111812,33.6908517 43.3843242,34.1048896 M58.5475477,49.6608833 C61.8238448,49.4124606 64.9227251,48.4897476 67.6667718,47.0228707 C69.1215897,49.8856467 69.9022236,53.044164 69.9731903,56.25 C67.1581769,57.8115142 64.0238133,58.7105678 60.8303107,58.876183 C60.7238606,55.7649842 59.97871,52.6182965 58.5475477,49.6608833 M51.8057089,41.3328076 C54.0411607,43.0599369 56.0045734,45.2129338 57.5421858,47.7799685 C60.8421385,47.6616719 63.9528466,46.7981073 66.7205488,45.3312303 C65.0646586,42.6932177 62.7937234,40.3746057 59.9905378,38.623817 C57.3765968,40.0788644 54.6088945,40.9660883 51.8057089,41.3328076 M44.2950639,37.5 C45.9982653,38.0086751 47.6541555,38.7066246 49.2035956,39.5938486 L49.2035956,39.6056782 C52.1605425,39.5347003 55.1411449,38.8604101 57.9561583,37.5 C55.1411449,36.1514196 52.1605425,35.4652997 49.2035956,35.4061514 L49.1917679,35.4061514 C47.6541555,36.2933754 45.9982653,36.9913249 44.2950639,37.5 M49.6530516,58.5567823 C49.404668,61.8335962 48.4821006,64.9329653 47.015455,67.6892744 C49.8777795,69.1324921 53.0357988,69.9250789 56.2411292,69.9723975 C57.7905693,67.1687697 58.7013089,64.0339117 58.866898,60.8280757 C55.7561899,60.7334385 52.6099984,59.9881703 49.6530516,58.5567823 M47.9735058,47.9810726 C49.0498344,50.5954259 49.6648794,53.4345426 49.7121905,56.4274448 C52.633654,57.9771293 55.7798455,58.7933754 58.8905535,58.8998423 C58.7722757,55.7768139 57.9798139,52.6419558 56.418546,49.7200315 C53.4261158,49.6727129 50.5874468,49.057571 47.9735058,47.9810726 M43.3843242,40.8951104 C45.1111812,41.3209779 46.8853493,41.5339117 48.6713452,41.5339117 C51.2143195,43.0717666 53.4615991,45.1537855 55.2121117,47.7326498 C52.1014036,47.4960568 49.1681123,46.5970032 46.5778268,45.1656151 C45.678915,43.6159306 44.6025863,42.1963722 43.3843242,40.8951104 M37.4940861,61.8217666 C39.3392209,64.5307571 41.6929506,66.7429022 44.342375,68.3990536 C42.5918625,71.0843849 40.2499606,73.3438486 37.4940861,75 C34.7500394,73.3438486 32.4081375,71.0843849 30.657625,68.3990536 C33.2952216,66.7429022 35.6489513,64.5307571 37.4940861,61.8217666 M41.3262892,51.8138801 C43.0531462,54.0496845 45.2176313,56.0134069 47.7724334,57.5512618 C47.6659833,60.851735 46.790727,63.9747634 45.3240814,66.7310726 C42.6864848,65.0749211 40.3682384,62.8036278 38.6177259,60 C40.060716,57.3856467 40.9596278,54.6175079 41.3262892,51.8138801 M40.9004889,43.3911672 C41.3026337,45.1182965 41.5273616,46.8927445 41.5273616,48.6790221 C43.064974,51.2105678 45.1466646,53.4582019 47.7132944,55.2089905 C47.4885665,52.1096215 46.5896546,49.1758675 45.1584924,46.5851735 C43.62088,45.6861199 42.1897177,44.6096215 40.9004889,43.3911672 M25.3351206,58.5567823 C25.5835042,61.8335962 26.5060716,64.9329653 27.9727172,67.6892744 C25.1103927,69.1324921 21.9523734,69.9250789 18.7470431,69.9723975 C17.1976029,67.1687697 16.2986911,64.0339117 16.1212742,60.8280757 C19.2438101,60.7334385 22.3781738,59.9881703 25.3351206,58.5567823 M33.661883,51.8138801 C31.935026,54.0496845 29.7823687,56.0134069 27.2275666,57.5512618 C27.3340167,60.851735 28.209273,63.9747634 29.6640908,66.7310726 C32.3135152,65.0749211 34.6199338,62.8036278 36.3704463,60 C34.9274562,57.3856467 34.0285444,54.6175079 33.661883,51.8138801 M37.4940861,44.3020505 C36.9854912,46.0173502 36.2876518,47.6616719 35.4005677,49.2113565 C35.4597067,52.1687697 36.1338906,55.1498423 37.4940861,57.9652997 C38.8542817,55.1498423 39.5402933,52.1687697 39.5876045,49.2113565 C38.7005204,47.6616719 38.002681,46.0173502 37.4940861,44.3020505 M16.4406245,49.6608833 C13.1643274,49.4124606 10.0772749,48.4897476 7.32140041,47.0228707 C5.86658256,49.8856467 5.08594859,53.044164 5.02680965,56.25 C7.82999527,57.8115142 10.9643589,58.7105678 14.1696893,58.876183 C14.2761394,55.7649842 15.0094622,52.6182965 16.4406245,49.6608833 M27.0146665,47.9810726 C24.4125532,49.057571 21.5620565,49.6727129 18.581454,49.7200315 C17.0201861,52.6537855 16.2158965,55.7886435 16.0976187,58.8998423 C19.2201545,58.7933754 22.3545182,57.9771293 25.2759817,56.4156151 C25.3232929,53.4345426 25.9383378,50.5835962 27.0146665,47.9810726 M34.0995111,43.3911672 C33.6855386,45.1182965 33.4726384,46.8927445 33.4608106,48.6790221 C31.9231982,51.2105678 29.8415076,53.4582019 27.26305,55.2208202 C27.4996057,52.1096215 28.3985176,49.1876972 29.8296799,46.5851735 C31.37912,45.6861199 32.8102823,44.6096215 34.0995111,43.3911672 M33.4608106,26.3209779 C33.4726384,28.1072555 33.6855386,29.8817035 34.0995111,31.6088328 C32.8102823,30.3903785 31.37912,29.3138801 29.8296799,28.4148265 C28.3985176,25.8123028 27.4996057,22.8903785 27.26305,19.7791798 C29.8533354,21.5417981 31.9231982,23.7894322 33.4608106,26.3209779 M23.1824633,41.3328076 C20.9470115,43.0599369 18.9835988,45.2129338 17.4578142,47.7799685 C14.1460337,47.6616719 11.0234979,46.7862776 8.2676234,45.3312303 C9.93534143,42.6932177 12.1944488,40.3746057 15.0094622,38.623817 C17.6115755,40.0788644 20.3792777,40.9660883 23.1824633,41.3328076 M31.603848,40.8951104 C29.876991,41.3209779 28.1028229,41.5339117 26.316827,41.5339117 C23.7856805,43.0599369 21.5384009,45.1537855 19.7878883,47.7326498 C22.8985964,47.4960568 25.8200599,46.5970032 28.4103454,45.1656151 C29.3092572,43.6159306 30.3855859,42.1963722 31.603848,40.8951104 M6.59990538,30.6506309 C3.91499763,32.4132492 1.65589024,34.7436909 0,37.5 C1.65589024,40.2563091 3.91499763,42.5867508 6.59990538,44.3493691 C8.25579562,41.6995268 10.4675919,39.3572555 13.187983,37.5 C10.4675919,35.6545741 8.25579562,33.3004732 6.59990538,30.6506309 M16.0976187,16.1001577 C19.2201545,16.2184543 22.3545182,17.0228707 25.2759817,18.5843849 C25.3232929,21.5654574 25.9383378,24.4164038 27.0146665,27.0189274 C24.4125532,25.942429 21.5620565,25.3272871 18.581454,25.2799685 C17.0201861,22.3580442 16.2158965,19.2231861 16.0976187,16.1001577 M27.9727172,7.32255521 C26.5060716,10.0788644 25.5835042,13.1664038 25.3351206,16.4432177 C22.3781738,15.0118297 19.2438101,14.2783912 16.1212742,14.1719243 C16.2986911,10.9660883 17.1976029,7.83123028 18.7470431,5.02760252 C21.9523734,5.08675079 25.1103927,5.86750789 27.9727172,7.32255521 M36.3704463,15 C34.9274562,17.6143533 34.0285444,20.3824921 33.661883,23.1861199 C31.935026,20.9503155 29.7823687,18.9865931 27.2275666,17.4487382 C27.3340167,14.148265 28.209273,11.0252366 29.6640908,8.2807571 C32.3135152,9.93690852 34.6199338,12.1963722 36.3704463,15 M39.5876045,25.8004732 C39.5402933,22.8312303 38.8542817,19.8501577 37.4940861,17.0347003 C36.1338906,19.8501577 35.4597067,22.8312303 35.4005677,25.8004732 C36.2876518,27.3501577 36.9854912,28.9944795 37.4940861,30.6979495 C38.002681,28.9944795 38.7005204,27.3501577 39.5876045,25.8004732 M41.5273616,26.3209779 C41.5273616,28.1072555 41.3026337,29.8817035 40.9004889,31.6088328 C42.1897177,30.3903785 43.62088,29.3138801 45.1584924,28.4148265 C46.5896546,25.8123028 47.4885665,22.8903785 47.7251222,19.7791798 C45.1466646,21.5417981 43.064974,23.7894322 41.5273616,26.3209779 M38.6177259,15 C40.3682384,12.1963722 42.6864848,9.93690852 45.3240814,8.2807571 C46.790727,11.0252366 47.6659833,14.148265 47.7724334,17.4605678 C45.2058035,18.9984227 43.0531462,20.9503155 41.3262892,23.1861199 C40.9596278,20.3824921 40.060716,17.6143533 38.6177259,15 M30.657625,6.60094637 C33.2952216,8.25709779 35.6489513,10.4692429 37.4940861,13.1782334 C39.3392209,10.4692429 41.6929506,8.25709779 44.342375,6.60094637 C42.5918625,3.91561514 40.2499606,1.65615142 37.4940861,0 C34.7500394,1.65615142 32.4081375,3.91561514 30.657625,6.60094637 M16.4406245,25.3391167 C15.0094622,22.3817035 14.2761394,19.2468454 14.1696893,16.123817 C10.9643589,16.3012618 7.82999527,17.1884858 5.02680965,18.75 C5.08594859,21.955836 5.86658256,25.1143533 7.32140041,27.9771293 C10.0772749,26.5102524 13.1643274,25.5875394 16.4406245,25.3391167 M30.6931083,37.5 C28.989907,36.9913249 27.3458445,36.2933754 25.7845766,35.4061514 C22.8276297,35.4652997 19.8470273,36.1514196 17.0438417,37.5 C19.8470273,38.8604101 22.8276297,39.5347003 25.7845766,39.6056782 L25.7845766,39.5938486 C27.3458445,38.7066246 28.989907,38.0086751 30.6931083,37.5 M17.4578142,27.2200315 C18.9954266,29.7870662 20.9470115,31.9518927 23.1824633,33.6671924 C20.3792777,34.0339117 17.6115755,34.9211356 15.0094622,36.376183 C12.1944488,34.6253943 9.93534143,32.3067823 8.2676234,29.6687697 C11.0234979,28.2137224 14.1460337,27.3383281 17.4578142,27.2200315 M31.603848,34.1048896 C30.3855859,32.8154574 29.3092572,31.3840694 28.4103454,29.8343849 C25.8200599,28.4029968 22.8867686,27.5039432 19.7760606,27.2791798 C21.5384009,29.8462145 23.7738527,31.9400631 26.316827,33.4660883 C28.1028229,33.4660883 29.876991,33.6908517 31.603848,34.1048896" id="Fill-17" fill="#C968A7"></path>
        <path d="M175.019716,44.2192429 C173.931388,42.2200315 173.316246,39.9250789 173.316246,37.4881703 C173.316246,33.5725552 174.90142,30.0236593 177.468454,27.4566246 C180.035489,24.9014196 183.584385,23.3044164 187.48817,23.3044164 C191.403785,23.3044164 194.952681,24.9014196 197.507886,27.4566246 C200.074921,30.0236593 201.660095,33.5725552 201.660095,37.4881703 C201.660095,41.4037855 200.074921,44.9408517 197.507886,47.5078864 C194.952681,50.0749211 191.403785,51.6600946 187.48817,51.6600946 C183.584385,51.6600946 180.035489,50.0749211 177.468454,47.5078864 C176.687697,46.7152997 175.989748,45.8399054 175.410095,44.8935331 L175.161672,44.4676656 L175.019716,44.2192429 Z M180.130126,22.9022082 L162.705047,22.9022082 L171.163249,37.5473186 L171.163249,37.4881703 C171.163249,32.9692429 172.996845,28.8998423 175.942429,25.942429 C177.160883,24.7239748 178.580442,23.694795 180.130126,22.9022082 Z M203.813091,37.9495268 L212.496057,22.9022082 L194.846215,22.9022082 C196.407729,23.694795 197.815457,24.7239748 199.033912,25.942429 C201.991325,28.8998423 203.824921,32.9692429 203.824921,37.4881703 C203.824921,37.6419558 203.824921,37.7957413 203.813091,37.9495268 Z M180.260252,69.0615142 C179.408517,69.8895899 178.024448,70.362776 176.640379,70.8359621 C175.492902,71.2263407 174.345426,71.6167192 173.351735,72.2200315 C173.067823,71.0252366 172.5,69.8659306 171.932177,68.7421136 C171.305205,67.4881703 170.690063,66.2460568 170.619085,65.1340694 C173.552839,66.9321767 176.805994,68.2689274 180.260252,69.0615142 Z M160.256309,55.0078864 C158.387224,52.1096215 156.979495,48.9037855 156.104101,45.4731861 C155.370662,46.3367508 154.944795,47.6380126 154.530757,48.9629338 C154.128549,50.1695584 153.75,51.3880126 153.099369,52.4526814 C154.235016,52.7129338 155.335174,53.2334385 156.423502,53.7539432 C157.748423,54.3809148 159.061514,55.0078864 160.256309,55.0078864 Z M164.597792,60.3785489 C163.450315,59.2429022 162.397476,58.0244479 161.439274,56.7231861 C161.084385,57.7760252 161.190852,59.1600946 161.285489,60.5559937 C161.391956,61.8217666 161.486593,63.0993691 161.297319,64.3178233 C162.444795,64.1403785 163.65142,64.1995268 164.858044,64.2705047 C166.324921,64.3533123 167.779968,64.4361199 168.880126,63.9865931 C167.354101,62.9219243 165.910883,61.70347 164.597792,60.3785489 Z M155.926656,30.2247634 C156.719243,26.7705047 158.055994,23.5291798 159.854101,20.6072555 C158.659306,20.6427445 157.358044,21.2933754 156.056782,21.955836 C154.980284,22.5 153.891956,23.0323344 152.768139,23.3280757 C153.430599,24.3809148 153.844637,25.5875394 154.270505,26.7823344 C154.720032,28.0954259 155.169558,29.3966877 155.926656,30.2247634 Z M155.11041,37.4881703 C155.11041,35.7255521 155.252366,33.9984227 155.524448,32.3067823 C154.518927,32.7917981 153.608044,33.8328076 152.685331,34.873817 C151.857256,35.8320189 151.005521,36.7902208 150,37.5118297 C150.934543,38.1979495 151.727129,39.1088328 152.519716,40.0197161 C153.477918,41.1198738 154.42429,42.2082019 155.524448,42.7050473 C155.252366,41.0015773 155.11041,39.2626183 155.11041,37.4881703 Z M169.992114,10.2326498 C170.039432,9.12066246 170.619085,7.86671924 171.210568,6.61277603 C171.754732,5.46529968 172.298896,4.30599369 172.559148,3.08753943 C173.564669,3.67902208 174.723975,4.04574132 175.871451,4.41246057 C177.255521,4.83832808 178.62776,5.27602524 179.514984,6.09227129 C176.096215,6.95583596 172.878549,8.37539432 169.992114,10.2326498 Z M164.597792,14.5859621 C163.272871,15.8990536 162.078076,17.3304416 161.001577,18.8564669 C160.623028,17.8036278 160.694006,16.431388 160.764984,15.035489 C160.835962,13.7697161 160.89511,12.4921136 160.682177,11.2736593 C161.829653,11.4392744 163.036278,11.3328076 164.242902,11.2381703 C165.69795,11.1317035 167.141167,11.0015773 168.264984,11.4274448 C166.963722,12.3856467 165.733438,13.4384858 164.597792,14.5859621 Z M194.763407,5.9148265 C195.591483,5.18138801 196.892744,4.7318612 198.205836,4.27050473 C199.400631,3.85646688 200.607256,3.43059937 201.660095,2.7681388 C201.944006,3.90378549 202.48817,4.98028391 203.032334,6.05678233 C203.682965,7.35804416 204.345426,8.65930599 204.380915,9.85410095 C201.447161,8.05599369 198.205836,6.7192429 194.763407,5.9148265 Z M187.48817,5.09858044 C189.262618,5.09858044 191.001577,5.24053628 192.705047,5.52444795 C192.220032,4.43611987 191.119874,3.47791798 190.019716,2.51971609 C189.108833,1.72712934 188.19795,0.922712934 187.51183,0 C186.790221,1.0055205 185.832019,1.84542587 184.873817,2.68533123 C183.832808,3.59621451 182.803628,4.50709779 182.318612,5.5126183 C183.998423,5.24053628 185.725552,5.09858044 187.48817,5.09858044 Z M214.743691,19.9921136 C216.612776,22.8903785 218.020505,26.0962145 218.884069,29.5268139 C219.700315,28.6395899 220.138013,27.2555205 220.57571,25.8714511 C220.942429,24.7239748 221.309148,23.5646688 221.888801,22.5591483 C220.682177,22.2988959 219.522871,21.7547319 218.375394,21.2223975 C217.109621,20.6190852 215.867508,20.0394322 214.743691,19.9921136 Z M210.390379,14.5859621 C209.077287,13.2728707 207.657729,12.0780757 206.131703,11.0015773 C207.184543,10.6230284 208.556782,10.6940063 209.952681,10.7649842 C211.218454,10.8359621 212.496057,10.9069401 213.714511,10.6821767 C213.548896,11.8414826 213.655363,13.0362776 213.73817,14.2429022 C213.856467,15.6979495 213.974763,17.1529968 213.560726,18.2768139 C212.602524,16.9637224 211.537855,15.7334385 210.390379,14.5859621 Z M219.061514,44.727918 C218.268927,48.1821767 216.932177,51.4235016 215.134069,54.3572555 C216.246057,54.2981073 217.48817,53.6829653 218.742114,53.0559937 C219.87776,52.4881703 221.013407,51.920347 222.220032,51.6246057 C221.616719,50.6309148 221.226341,49.4952681 220.835962,48.3477918 C220.362776,46.9637224 219.87776,45.579653 219.061514,44.727918 Z M219.87776,37.4881703 C219.87776,39.2626183 219.735804,41.0134069 219.451893,42.7050473 C220.55205,42.2200315 221.510252,41.1198738 222.468454,40.0197161 C223.261041,39.1088328 224.065457,38.1979495 225,37.5118297 C223.98265,36.7902208 223.142744,35.8320189 222.302839,34.873817 C221.380126,33.8328076 220.469243,32.7917981 219.463722,32.3067823 C219.735804,33.9865931 219.87776,35.7255521 219.87776,37.4881703 Z M192.705047,69.4518927 C191.013407,69.7239748 189.262618,69.8659306 187.48817,69.8659306 C185.725552,69.8659306 183.986593,69.7239748 182.306782,69.4518927 C182.779968,70.4574132 183.820978,71.3682965 184.873817,72.3028391 C185.832019,73.1427445 186.790221,73.9826498 187.51183,75 C188.19795,74.0536278 189.108833,73.261041 190.019716,72.4684543 C191.119874,71.5102524 192.220032,70.5638801 192.705047,69.4518927 Z M205.007886,64.7200315 C205.007886,65.9148265 204.369085,67.2397476 203.753943,68.5646688 C203.233438,69.6529968 202.712934,70.7531546 202.440852,71.8769716 C201.388013,71.2381703 200.169558,70.8477918 198.962934,70.4574132 C197.638013,70.0315457 196.324921,69.6056782 195.473186,68.8722397 C198.903785,68.0086751 202.121451,66.5891167 205.007886,64.7200315 Z M210.390379,60.3785489 C209.254732,61.5260252 208.024448,62.5788644 206.723186,63.5488959 C207.776025,63.9037855 209.160095,63.7973186 210.555994,63.6908517 C211.821767,63.5962145 213.099369,63.5015773 214.317823,63.6908517 C214.140379,62.5433754 214.199527,61.3367508 214.270505,60.1301262 C214.353312,58.6632492 214.43612,57.2082019 213.986593,56.0962145 C212.921924,57.6340694 211.7153,59.0654574 210.390379,60.3785489 Z M160.634858,23.6001577 L173.055994,45.1182965 C173.245268,45.4613565 173.434543,45.8044164 173.647476,46.1356467 L186.080442,67.6774448 C178.29653,67.3225552 171.281546,64.022082 166.123817,58.8643533 C162.137224,54.8777603 159.262618,49.8028391 157.996845,44.112776 L157.795741,43.1545741 C157.440852,41.3209779 157.263407,39.4164038 157.263407,37.4881703 C157.263407,32.4842271 158.481861,27.7523659 160.634858,23.6001577 Z M212.673502,20.7492114 C211.549685,19.0812303 210.283912,17.5197161 208.864353,16.1119874 C203.399054,10.634858 195.839905,7.25157729 187.48817,7.25157729 C185.548107,7.25157729 183.655363,7.44085174 181.821767,7.78391167 L180.839905,7.98501577 C175.161672,9.2626183 170.086751,12.137224 166.123817,16.1119874 C164.704259,17.5197161 163.426656,19.0812303 162.314669,20.7492114 L187.606467,20.7492114 L212.673502,20.7492114 Z M189.132492,67.6656151 L201.908517,45.5323344 L214.459779,23.8130915 C215.583596,26.0134069 216.435331,28.3675079 216.991325,30.851735 L217.180599,31.8099369 C217.535489,33.6435331 217.724763,35.5481073 217.724763,37.4881703 C217.724763,45.8280757 214.341483,53.387224 208.864353,58.8643533 C204.88959,62.8391167 199.802839,65.7137224 194.112776,66.9794953 L193.154574,67.1805994 C191.841483,67.4290221 190.504732,67.5946372 189.132492,67.6656151 Z M187.606467,66.0212934 L196.052839,51.3880126 C193.568612,52.9258675 190.634858,53.8130915 187.48817,53.8130915 C184.495268,53.8130915 181.69164,53.0086751 179.278391,51.6009464 L187.606467,66.0212934 Z" id="Fill-7-Copy" fill="#9BD2EF"></path>
        <path d="M273.6,51.4006591 L277,45.5155367 L280.564706,39.3479284 L287.529412,51.4006591 L273.6,51.4006591 Z M244.964706,39.3361582 L248.529412,45.5155367 L251.929412,51.4006591 L238.011765,51.4006591 L244.964706,39.3361582 Z M269.905882,20.8568738 L262.764706,20.8568738 L255.635294,20.8568738 L262.764706,8.49811676 L269.905882,20.8568738 Z M235.776471,50.9887006 C234.858824,49.1643126 234.117647,47.2339925 233.588235,45.2212806 L233.588235,45.2095104 L233.576471,45.1859699 L233.552941,45.0918079 L233.529412,44.9858757 L233.517647,44.9741055 L233.494118,44.8681733 L233.470588,44.7622411 L233.435294,44.6563089 L233.411765,44.5503766 L233.411765,44.5386064 L233.388235,44.4326742 L233.364706,44.3385122 L233.364706,44.3149718 L233.341176,44.2090395 L233.317647,44.0913371 L233.282353,43.9854049 L233.270588,43.9147834 L233.258824,43.8677024 L233.223529,43.702919 L233.211765,43.6440678 L233.188235,43.5381356 L233.176471,43.4792844 L233.164706,43.4204331 L233.105882,43.079096 L233.094118,43.0555556 C232.764706,41.2547081 232.588235,39.3950094 232.588235,37.5117702 C232.588235,32.5211864 233.8,27.836629 235.941176,23.6935028 L243.729412,37.1939736 L235.776471,50.9887006 Z M251.929412,22.9990584 L248.529412,28.8841808 L244.964706,35.0635593 L238,22.9990584 L251.929412,22.9990584 Z M280.564706,35.0635593 L277,28.8841808 L273.6,22.9990584 L287.529412,22.9990584 L280.564706,35.0635593 Z M271.141176,51.4006591 L275.141176,44.4562147 L279.329412,37.1939736 L275.141176,29.9552731 L275.141176,29.9435028 L271.141176,22.9990584 L262.764706,22.9990584 L254.4,22.9990584 L250.388235,29.9552731 L246.2,37.2057439 L250.376471,44.4562147 L250.388235,44.4562147 L254.4,51.4006591 L262.764706,51.4006591 L271.141176,51.4006591 Z M233.952941,22.8813559 C232.329412,22.9872881 230.729412,24.0348399 229.129412,25.0823917 C227.823529,25.9416196 226.529412,26.8008475 225.105882,27.2834275 C226.152941,28.4839925 226.858824,29.9552731 227.564706,31.4265537 C228.4,33.1332392 229.211765,34.8281544 230.494118,35.7109228 C230.741176,31.1087571 231.964706,26.7655367 233.952941,22.8813559 Z M250.294118,4.2019774 C251.211765,2.86016949 252.129412,1.49482109 252.647059,0 C253.764706,0.988700565 255.164706,1.68314501 256.552941,2.3893597 C258.211765,3.22504708 259.870588,4.06073446 260.8,5.34369115 C256.223529,5.60263653 251.917647,6.81497175 248.058824,8.78060264 C248.211765,7.26224105 249.247059,5.74387947 250.294118,4.2019774 Z M245.058824,10.5108286 C243.2,11.7349341 241.458824,13.1473635 239.882353,14.7245763 C238.305882,16.3017891 236.905882,18.0202448 235.682353,19.8917137 C235.023529,18.4792844 235.164706,16.6195857 235.317647,14.7245763 C235.435294,13.1120527 235.564706,11.4642185 235.258824,9.92231638 C236.717647,10.2048023 238.282353,10.1224105 239.835294,10.0282486 C241.729412,9.92231638 243.611765,9.81638418 245.058824,10.5108286 Z M274.694118,70.7980226 C275.705882,69.3149718 276.694118,67.8672316 276.917647,66.4077213 C273.270588,68.2085687 269.223529,69.3502825 264.952941,69.6445386 L264.847059,69.6563089 L264.741176,69.6680791 L264.552941,69.6798493 L264.317647,69.6916196 L264.247059,69.6916196 L264.211765,69.6916196 C265.141176,70.962806 266.776471,71.7867232 268.435294,72.6224105 C269.823529,73.316855 271.223529,74.0230697 272.341176,75 C272.858824,73.5051789 273.788235,72.1398305 274.694118,70.7980226 Z M230.482353,39.0654426 C229.117647,39.9599812 228.258824,41.6784369 227.388235,43.3968927 C226.682353,44.7975518 225.976471,46.1864407 225,47.3046139 C226.494118,47.8225047 227.847059,48.752354 229.188235,49.6704331 C230.752941,50.7415254 232.294118,51.7890772 233.847059,51.9185499 C231.894118,48.0225989 230.705882,43.6676083 230.482353,39.0654426 Z M297.423529,43.5734463 C298.129412,45.0447269 298.847059,46.5277778 299.882353,47.7283427 C298.470588,48.2109228 297.164706,49.0583804 295.858824,49.9176083 C294.376471,50.8945386 292.882353,51.8832392 291.376471,52.0951036 C293.317647,48.269774 294.517647,44.0207156 294.8,39.5244821 C295.905882,40.4425612 296.658824,42.0080038 297.423529,43.5734463 Z M295.8,25.3295669 C297.141176,26.247646 298.494118,27.1774953 300,27.6953861 C299.011765,28.8135593 298.305882,30.2142185 297.611765,31.6031073 C296.8,33.1920904 296,34.7810734 294.811765,35.722693 C294.564706,31.2146893 293.388235,26.9538606 291.482353,23.1167608 C292.917647,23.363936 294.341176,24.3408663 295.8,25.3295669 Z M235.564706,54.9435028 C234.847059,56.3912429 234.952941,58.2980226 235.070588,60.2048023 C235.152941,61.7584746 235.247059,63.3239171 234.964706,64.7834275 C236.517647,64.4774011 238.152941,64.6068738 239.776471,64.7245763 C241.635294,64.8658192 243.458824,64.9952919 244.858824,64.3714689 C243.070588,63.170904 241.4,61.8173258 239.882353,60.287194 C238.258824,58.6746704 236.811765,56.873823 235.564706,54.9435028 Z M247.858824,66.1370056 C247.988235,67.7259887 249.023529,69.3032015 250.047059,70.8686441 C250.905882,72.1751412 251.764706,73.4816384 252.235294,74.8940678 C253.435294,73.8582863 254.917647,73.1520716 256.376471,72.4458569 C258.035294,71.6454802 259.647059,70.8686441 260.564706,69.6680791 C256,69.373823 251.705882,68.126177 247.858824,66.1370056 Z M285.223529,10.2754237 C286.835294,10.4048964 288.482353,10.5225989 290.023529,10.2165725 C289.741176,11.6760829 289.835294,13.2415254 289.929412,14.7951977 C290.023529,16.584275 290.129412,18.3733522 289.552941,19.7857815 C288.352941,17.9613936 286.964706,16.2664783 285.423529,14.7245763 C283.870588,13.170904 282.152941,11.7702448 280.305882,10.5579096 C281.682353,10.0164783 283.435294,10.145951 285.223529,10.2754237 Z M268.611765,2.56591337 C270.070588,1.85969868 271.552941,1.14171375 272.752941,0.105932203 C273.235294,1.51836158 274.094118,2.82485876 274.941176,4.13135593 C275.941176,5.66148776 276.941176,7.17984934 277.117647,8.72175141 C273.270588,6.76789077 268.976471,5.57909605 264.435294,5.3319209 C265.341176,4.13135593 266.964706,3.35451977 268.611765,2.56591337 Z M283.905882,58.7688324 C278.670588,64.0183616 271.705882,67.1374765 264.282353,67.549435 L272.364706,53.5428437 L288.082353,53.5428437 C286.894118,55.4378531 285.494118,57.2033898 283.905882,58.7688324 Z M247.294118,63.3709981 C245.141176,62.0880414 243.152941,60.5343691 241.4,58.7688324 C239.811765,57.2033898 238.411765,55.4378531 237.211765,53.5428437 L253.164706,53.5428437 L261.247059,67.5612053 C257.270588,67.3728814 253.494118,66.4077213 250.058824,64.8305085 L250.035294,64.8187382 L250,64.806968 L249.752941,64.6892655 L249.729412,64.665725 L249.717647,64.665725 L249.623529,64.6186441 L249.517647,64.5715631 L249.470588,64.5480226 L249.305882,64.4656309 L249.188235,64.4067797 C248.611765,64.1242938 248.058824,63.8182674 247.505882,63.4887006 L247.294118,63.3709981 Z M241.4,16.2429379 C239.988235,17.643597 238.717647,19.1972693 237.611765,20.8568738 L253.164706,20.8568738 L260.882353,7.48587571 C257.435294,7.68596987 254.152941,8.46280603 251.117647,9.72222222 L251.094118,9.73399247 C247.458824,11.252354 244.176471,13.4651601 241.4,16.2429379 Z M280.988235,13.6770245 C279.976471,12.8884181 278.905882,12.1704331 277.776471,11.5112994 L277.564706,11.393597 C273.717647,9.18079096 269.329412,7.80367232 264.658824,7.49764595 L272.364706,20.8568738 L287.694118,20.8568738 C286.588235,19.1972693 285.317647,17.643597 283.905882,16.2429379 C283.282353,15.6191149 282.635294,15.0188324 281.952941,14.4538606 L281.929412,14.4303202 C281.776471,14.3008475 281.623529,14.1713748 281.470588,14.0536723 L281.447059,14.0301318 L281.376471,13.9712806 L281.282353,13.9006591 L281.188235,13.8300377 L281.117647,13.7711864 L281.094118,13.747646 L280.988235,13.6770245 Z M291.247059,46.8102637 C291.4,46.3512241 291.529412,45.8921846 291.658824,45.4213748 C291.894118,44.5739171 292.082353,43.7264595 292.235294,42.8554614 L292.258824,42.7495292 L292.258824,42.7377589 L292.282353,42.6200565 L292.294118,42.5376648 L292.305882,42.502354 L292.317647,42.3846516 L292.329412,42.3258004 L292.341176,42.2669492 L292.364706,42.1374765 L292.364706,42.1021657 L292.4,41.9020716 L292.4,41.8903013 C292.611765,40.4661017 292.717647,38.9948211 292.717647,37.5117702 C292.717647,32.6153484 291.541176,27.9896422 289.470588,23.9053672 L281.8,37.1939736 L289.635294,50.7886064 C290.152941,49.7292844 290.611765,48.6346516 291.011765,47.5164783 L291.011765,47.4929379 L291.047059,47.3987759 L291.082353,47.2928437 L291.094118,47.2810734 L291.129412,47.1751412 L291.129412,47.163371 L291.164706,47.0574388 L291.211765,46.9397363 L291.223529,46.8926554 L291.247059,46.8220339 L291.247059,46.8102637 Z M289.682353,60.2754237 C289.811765,58.509887 289.941176,56.779661 289.435294,55.4143126 C288.258824,57.1680791 286.917647,58.8041431 285.423529,60.287194 C283.823529,61.8997175 282.047059,63.3356874 280.129412,64.5833333 C281.541176,65.1718456 283.352941,65.0776836 285.152941,64.9717514 C286.717647,64.8893597 288.270588,64.7951977 289.729412,65.0894539 C289.435294,63.5357815 289.552941,61.8997175 289.682353,60.2754237 Z M262.764706,65.9016008 L269.905882,53.5428437 L262.764706,53.5428437 L255.635294,53.5428437 L262.764706,65.9016008 Z" id="Fill-9-Copy" fill="#B8D886"></path>
        <path d="M333.335527,4.13671703 C331.77055,5.51195541 330.249656,6.85418806 329.599418,8.44946457 C331.704424,7.89936922 333.908618,7.56931201 336.167917,7.49229867 L336.245064,7.49229867 L336.32221,7.49229867 L336.388336,7.49229867 L336.421399,7.49229867 L336.465483,7.49229867 L336.54263,7.48129676 L336.763049,7.48129676 L336.807133,7.48129676 L336.829175,7.48129676 L336.851217,7.48129676 L337.203888,7.48129676 L337.556559,7.48129676 L337.56758,7.48129676 L337.589622,7.48129676 L337.644727,7.48129676 L337.865146,7.48129676 L337.942293,7.49229867 L337.986377,7.49229867 L338.008419,7.49229867 L338.085566,7.49229867 L338.162712,7.49229867 L338.239859,7.49229867 C340.510179,7.56931201 342.725394,7.89936922 344.84142,8.44946457 C344.191183,6.73316708 342.582122,5.32492299 340.962039,3.90567698 C339.562376,2.69546721 338.162712,1.47425554 337.214909,0 C336.245064,1.58427461 334.779274,2.87149773 333.335527,4.13671703 Z M353.360631,8.21842453 C355.27828,8.0203902 357.21797,7.80035206 358.937242,7.0742262 C358.849074,8.82352941 359.278892,10.6278422 359.719731,12.421153 C360.215674,14.4565058 360.700597,16.4808567 360.303842,18.219158 C359.741773,17.5590436 359.157661,16.920933 358.540487,16.2938243 C355.575846,13.3343113 351.99403,11.001907 348.004439,9.46164002 C349.437165,8.63649699 351.387877,8.42746076 353.360631,8.21842453 Z M325.98454,9.63767053 C322.160263,11.1559337 318.732741,13.4443304 315.867289,16.2938243 C315.073779,17.0969635 314.313332,17.9441103 313.60799,18.8242629 C312.902648,16.9539387 313.453697,14.6875458 314.004745,12.421153 C314.445584,10.6278422 314.875402,8.82352941 314.787234,7.0742262 C316.506505,7.80035206 318.446196,8.0203902 320.363845,8.21842453 C322.457829,8.43846267 324.529772,8.65850081 325.98454,9.63767053 Z M367.632787,23.4010562 C365.913516,22.4108846 364.216287,21.4317148 362.55212,21.2666862 C362.728456,21.5197301 362.882749,21.7727739 363.037043,22.0258178 L363.510944,22.8399589 C365.660034,26.6466187 367.004592,30.9813701 367.313179,35.602171 C368.690801,34.424967 369.48431,32.4886314 370.288841,30.5412938 C370.994183,28.8249963 371.699525,27.1086988 372.812644,25.7444624 C370.994183,25.3373918 369.296954,24.3582221 367.632787,23.4010562 Z M370.233736,44.0626375 C369.418185,42.2033152 368.613654,40.3659968 367.3242,39.2548042 L367.3242,39.3868271 L367.313179,39.397829 L367.313179,39.5958633 L367.313179,39.628869 L367.302158,39.74989 L367.280116,39.9919319 L367.269095,40.1129529 C366.861319,45.074813 365.241237,49.7066158 362.706414,53.6893061 C364.513853,53.5682852 366.321292,52.4790964 368.128731,51.3899076 C369.70473,50.4327417 371.302771,49.4755758 373,49.0244976 C371.787693,47.6162535 371.005204,45.8339446 370.233736,44.0626375 Z M360.061381,62.2377879 C359.642584,64.119114 359.212766,66.0224439 359.356039,67.8707643 C357.724935,67.2216518 355.873412,67.0676251 354.021889,66.9025965 C351.938925,66.715564 349.866983,66.5285316 348.335068,65.5933695 C352.192408,64.0641044 355.652992,61.7757078 358.540487,58.8932082 C359.245829,58.1890861 359.929129,57.4409564 360.568345,56.659821 C360.943058,58.3101071 360.50222,60.2684465 360.061381,62.2377879 Z M357.063677,57.5289717 L357.052656,57.5399736 L356.964488,57.6279889 L356.953467,57.6389908 L356.865299,57.727006 L356.766111,57.8260232 L356.733048,57.848027 L356.611817,57.969048 L356.468544,58.1010709 L356.435481,58.1340766 L356.369356,58.200088 L356.270167,58.2881033 L356.237104,58.3101071 L356.159957,58.3871204 L356.060768,58.4751357 L355.972601,58.552149 L355.96158,58.5631509 L355.928517,58.5961567 L355.752181,58.7501834 L355.730139,58.7611853 L355.719118,58.7831891 L355.498699,58.9702215 L355.443594,59.0142291 L355.344405,59.1022444 L355.256238,59.1792577 L355.234196,59.1902596 L355.223175,59.2012616 C355.079902,59.3332844 354.925608,59.4433035 354.771315,59.5643245 L354.760294,59.5863283 L354.517833,59.7733607 L354.48477,59.7953645 L354.275371,59.9603931 L354.26435,59.9603931 L354.054952,60.1254217 L354.010868,60.1474256 L353.999847,60.1584275 L353.768407,60.334458 L353.503903,60.5214904 C353.250421,60.7085228 352.985918,60.8845533 352.721414,61.0605838 C348.665697,63.7340472 343.882596,65.3953352 338.735803,65.6703829 L350.638451,45.0858149 L362.32068,24.8753117 C364.271391,28.6929734 365.362467,33.0167229 365.362467,37.6045181 L365.362467,38.2976383 L365.362467,38.3196421 L365.351447,38.3416459 C365.208174,44.1726566 363.279504,49.5525891 360.094444,53.9753557 L359.995255,54.1073786 C359.620542,54.6244682 359.223787,55.130556 358.816011,55.6256418 L358.727843,55.7246589 C358.606613,55.8676837 358.496403,55.9997066 358.364151,56.1427314 L358.275983,56.2417486 L358.187816,56.3407657 L358.099648,56.4397829 L357.912291,56.6488191 L357.824124,56.7478363 L357.746977,56.8358515 L357.724935,56.8468535 L357.636767,56.9458706 L357.537578,57.0448878 L357.449411,57.1439049 L357.262054,57.3309374 L357.251033,57.3419393 L357.151844,57.4409564 L357.063677,57.5289717 Z M341.094291,70.8412792 C342.56008,69.5430541 344.014848,68.2668329 344.709169,66.7705736 C342.56008,67.3206689 340.322823,67.6397242 338.008419,67.7057357 L337.964335,67.7057357 L337.942293,67.7057357 C337.402265,67.7167376 336.862238,67.7167376 336.32221,67.6947338 L336.289147,67.6947338 L336.245064,67.6947338 L336.167917,67.6947338 L336.101791,67.6947338 L336.024644,67.6947338 L335.947497,67.6837318 L335.804225,67.6837318 L335.727078,67.6727299 L335.660952,67.6727299 C333.58901,67.5737128 331.583193,67.2546575 329.654523,66.7595717 C330.348844,68.3878539 331.902801,69.7410885 333.467779,71.094323 C334.867442,72.3045328 336.267105,73.5257445 337.22593,75 C338.184754,73.4047235 339.650543,72.1175004 341.094291,70.8412792 Z M311.866677,21.2446824 C310.070259,21.2776881 308.240778,22.3228693 306.367213,23.4010562 C304.703046,24.3582221 303.016838,25.3373918 301.187356,25.7444624 C302.300475,27.1086988 303.005817,28.8249963 303.711159,30.5412938 C304.581815,32.65366 305.452472,34.777028 307.083576,35.8992225 C307.348079,31.0913892 308.747742,26.6026111 311.007041,22.6529265 L311.370733,22.0258178 C311.525027,21.7727739 311.701362,21.5087282 311.866677,21.2446824 Z M312.186285,24.6882793 L323.978723,45.0858149 L335.881371,65.6813848 C328.629573,65.3403257 322.094137,62.2707936 317.288994,57.4739622 C316.969386,57.1549069 316.660799,56.8358515 316.363233,56.5057943 L316.352212,56.4947924 C316.208939,56.3297638 316.054646,56.1647352 315.911373,55.9887047 L315.900352,55.9887047 L315.724017,55.7796685 L315.690954,55.7356608 L315.64687,55.6806513 C315.19501,55.1525598 314.776213,54.6134663 314.368437,54.063371 L314.29129,53.94235 L314.214144,53.8323309 C310.951936,49.2445357 309.034287,43.6445651 309.034287,37.6045181 C309.034287,35.9322283 309.188581,34.2929441 309.464105,32.7086695 L309.464105,32.6976676 L309.486147,32.5656447 L309.508189,32.4886314 L309.508189,32.4336218 L309.541252,32.3015989 L309.541252,32.2795951 L309.585336,32.1035646 L309.585336,32.0705589 L309.596357,32.0375532 L309.618399,31.9055303 C309.838818,30.8493472 310.114343,29.8041661 310.444972,28.8029925 C310.918873,27.3727446 311.502985,25.9975062 312.186285,24.6882793 Z M313.784326,21.9818102 L313.751263,22.0258178 L337.303077,22.0258178 L360.656513,22.0258178 C359.620542,20.4745489 358.430277,19.0332991 357.118782,17.7130703 C354.848462,15.4466774 352.181387,13.5653513 349.249809,12.179111 L349.238788,12.1681091 C349.04041,12.0800939 348.842033,11.9810767 348.643655,11.9040634 L348.621613,11.8930615 L348.368131,11.7830424 L348.324047,11.7610386 L348.313026,11.7500367 L348.180775,11.6950271 L348.059544,11.6510195 L348.048523,11.6510195 L347.927292,11.59601 L347.806062,11.5410004 L347.552579,11.4419833 L347.420328,11.3869737 L347.299097,11.3429661 L347.166845,11.2879566 L347.034594,11.243949 L346.902342,11.1999413 C346.516608,11.0569165 346.130874,10.9248936 345.734119,10.7928708 L345.590846,10.7488631 C343.056023,9.95672583 340.355886,9.51664955 337.56758,9.48364383 L337.556559,9.48364383 L337.203888,9.48364383 L336.851217,9.48364383 L336.840196,9.48364383 C329.202663,9.58266099 322.303536,12.7072026 317.288994,17.7130703 C316.264044,18.7472495 315.316241,19.8474402 314.456605,21.0246443 L314.4015,21.1016576 L314.324353,21.2006748 L314.29129,21.2446824 L314.247206,21.3106939 L314.17006,21.4207129 L314.148018,21.4537186 L314.092913,21.530732 L314.081892,21.530732 L314.015766,21.6407511 L313.993724,21.6737568 L313.94964,21.7397682 L313.938619,21.761772 L313.861473,21.8607892 L313.839431,21.882793 L313.795347,21.9598064 L313.784326,21.9818102 Z M307.12766,40.0249377 C307.105618,39.6728766 307.083576,39.3098137 307.061534,38.9577527 C305.54064,40.0139357 304.658962,42.0272847 303.766264,44.0626375 C303.005817,45.8339446 302.212307,47.6162535 301,49.0244976 C302.697229,49.4755758 304.284249,50.4327417 305.871269,51.3899076 C307.821981,52.5561097 309.750651,53.7333138 311.712383,53.7003081 C309.331854,49.9706616 307.766876,45.6799179 307.237869,41.0811207 L307.215827,40.9600998 L307.182764,40.6630483 L307.171743,40.4650139 L307.160722,40.4100044 L307.160722,40.343993 L307.138681,40.0909491 L307.138681,40.0469415 L307.12766,40.0249377 Z M313.663095,56.4397829 C314.357416,57.2979316 315.095821,58.1120728 315.867289,58.8932082 C318.7107,61.7317002 322.1272,64.0090949 325.929435,65.53836 C324.386499,66.5285316 322.270473,66.715564 320.143426,66.9025965 C318.302924,67.0676251 316.451401,67.2216518 314.809276,67.8707643 C314.96357,66.0224439 314.533752,64.119114 314.114955,62.2377879 C313.652074,60.1694294 313.189193,58.1340766 313.663095,56.4397829 Z M337.314098,64.1411178 L348.908159,44.0846413 L360.50222,24.0391668 L337.303077,24.0391668 L314.114955,24.0391668 L325.709016,44.0846413 L337.314098,64.1411178 Z" id="Fill-11-Copy" fill="#F7E8AB"></path>
        <path d="M83.6507073,44.4565388 C86.3891911,47.545419 89.073268,50.5802662 92.4827711,51.5888802 C89.862169,48.0407204 88.1664853,43.7721222 87.7675009,39.1342991 L87.7584331,38.9992169 L87.7493653,38.8551292 L87.7312296,38.6299922 L87.7312296,38.5939702 L87.7312296,38.5759593 L87.7130939,38.3238058 L87.7130939,38.2877839 L87.7130939,38.2697729 L87.7040261,38.233751 L87.6949583,37.972592 L87.6949583,37.9455756 L87.6858905,37.6754111 L87.6858905,37.6213782 L87.6768226,37.3422083 L87.6768226,37.3241973 L87.6768226,37.0090055 L87.6768226,36.6938136 L87.6768226,36.6758027 L87.6858905,36.3876273 L87.6858905,36.3425998 L87.6949583,36.0634299 L87.6949583,36.045419 L87.7040261,35.7752545 L87.7130939,35.7392326 L87.7130939,35.7212216 L87.7130939,35.6851997 L87.7312296,35.4420517 L87.7312296,35.4240407 L87.7312296,35.3880188 L87.7493653,35.1538763 L87.7584331,35.0277995 L87.7584331,35.018794 L87.7675009,34.8837118 C88.1755531,30.2278778 89.8712369,25.9502741 92.5099746,22.3931088 C88.8465724,23.3927173 86.0536815,26.5716523 83.2517229,29.7685983 C80.7399347,32.6233359 78.2190787,35.4870791 75,37 C78.4185709,38.5489428 81.0573087,41.5207518 83.6507073,44.4565388 Z M93.4258252,50.0759593 L93.3442147,49.958888 L93.2807399,49.8598277 L93.1991295,49.7427565 L93.1900617,49.733751 L93.0812477,49.5536413 L93.0631121,49.5266249 L92.9905695,49.4275646 L92.9815016,49.4095536 L92.963366,49.3825372 L92.8454842,49.2024276 L92.8273486,49.1754111 L92.8273486,49.1664056 C90.8505622,46.032498 89.6264055,42.3942835 89.3725063,38.4859045 L89.3725063,38.4678935 L89.3453029,37.9005482 L89.3453029,37.8915427 L89.336235,37.6213782 L89.336235,37.5763508 C89.3271672,37.3872357 89.3271672,37.1981206 89.3271672,37.0090055 L89.3271672,36.8739233 L89.3271672,36.8288958 L89.3271672,36.738841 L89.3271672,36.6487862 L89.3271672,36.6037588 L89.336235,36.4686766 L89.336235,36.3425998 L89.336235,36.2975724 L89.336235,36.288567 L89.3453029,36.1264683 L89.3453029,36.1174628 L89.3453029,36.0724354 L89.3543707,35.9463587 L89.3543707,35.9373532 C89.3634385,35.766249 89.3725063,35.5861394 89.3815742,35.4150352 C89.6082699,32.1910728 90.4969169,29.1562255 91.911498,26.4455756 L101.614073,43.1417384 L111.425462,60 C105.186797,59.7118246 99.3743199,56.9561472 95.221255,52.3363352 L95.1033732,52.2012529 C94.5048966,51.5258418 93.9426913,50.8144088 93.4258252,50.0759593 Z M131.63765,24.023101 C131.102648,23.2576351 130.522307,22.5101801 129.896627,21.8077525 L129.742474,21.6276429 C129.461371,21.330462 129.180268,21.0242756 128.890098,20.7361002 C124.691694,16.5665623 118.897352,14 112.504534,14 C106.102648,14 100.308306,16.5665623 96.1189699,20.7361002 C95.8197316,21.0242756 95.5386289,21.330462 95.2575263,21.6366484 L95.1033732,21.8077525 C94.5411679,22.4381363 94.0152339,23.1045419 93.5255713,23.797964 L93.4983678,23.8339859 L93.4893,23.8519969 L93.4258252,23.9420517 L93.4076895,23.9690681 L93.3623504,24.023101 L93.3442147,24.0501175 L93.2807399,24.1491778 L93.2807399,24.1581832 L93.2444686,24.2032106 L93.2081973,24.266249 L93.1991295,24.266249 L112.586144,24.266249 L131.800871,24.266249 L131.764599,24.2032106 L131.728328,24.1581832 L131.71926,24.1491778 L131.655785,24.0501175 L131.63765,24.023101 Z M129.778745,52.3363352 C129.488575,52.6605325 129.189336,52.9757244 128.890098,53.2819107 C124.972797,57.1722788 119.65905,59.6667972 113.755894,59.9909945 L123.549148,43.1417384 L123.558215,43.1417384 L133.170112,26.5986688 C134.620965,29.42639 135.491476,32.587314 135.645629,35.9373532 L135.645629,35.9643696 L135.645629,35.9733751 C135.654697,36.1444792 135.663765,36.3065779 135.663765,36.4686766 L135.663765,36.4776821 L135.672833,36.6037588 L135.672833,36.6577917 L135.672833,36.738841 L135.672833,36.8288958 L135.672833,36.8739233 L135.672833,37.0090055 C135.672833,37.1981206 135.672833,37.3872357 135.663765,37.5763508 L135.663765,37.6213782 L135.654697,37.8915427 L135.654697,37.9005482 L135.627494,38.4678935 L135.627494,38.4859045 C135.382662,42.2952232 134.203845,45.8523884 132.326804,48.9322631 L132.317737,48.9502741 L132.199855,49.1393892 L132.154516,49.2024276 L132.081973,49.3194988 L132.072905,49.3375098 L132.009431,49.4275646 L131.945956,49.5266249 L131.936888,49.5356304 L131.809938,49.733751 L131.800871,49.7427565 L131.728328,49.8598277 L131.655785,49.958888 L131.583243,50.0759593 C131.066376,50.8144088 130.504171,51.5258418 129.896627,52.2012529 L129.778745,52.3363352 Z M132.517229,51.5888802 C135.926732,50.5802662 138.619877,47.545419 141.349293,44.4565388 C143.942691,41.5207518 146.581429,38.5489428 150,37 C146.780921,35.4870791 144.269133,32.6233359 141.757345,29.7685983 C138.955386,26.5716523 136.153428,23.3927173 132.499093,22.3931088 C135.128763,25.9502741 136.833515,30.2278778 137.232499,34.8837118 L137.241567,35.018794 L137.241567,35.0277995 L137.259703,35.1538763 L137.26877,35.3880188 L137.277838,35.4240407 L137.277838,35.4420517 L137.286906,35.6851997 L137.295974,35.7212216 L137.295974,35.7392326 L137.295974,35.7752545 L137.305042,36.045419 L137.305042,36.0634299 L137.31411,36.3425998 L137.31411,36.3876273 L137.323177,36.6758027 L137.323177,36.6938136 L137.323177,37.0090055 L137.323177,37.3241973 L137.323177,37.3422083 L137.31411,37.6213782 L137.31411,37.6754111 L137.305042,37.9455756 L137.305042,37.972592 L137.295974,38.233751 L137.295974,38.2697729 L137.295974,38.2877839 L137.286906,38.3238058 L137.277838,38.5759593 L137.277838,38.5939702 L137.26877,38.6299922 L137.259703,38.8551292 L137.241567,38.9992169 L137.232499,39.1342991 C136.833515,43.7721222 135.146899,48.0407204 132.517229,51.5888802 Z M112.586144,58.7302271 L122.134567,42.3222396 L131.664853,25.9052467 L112.586144,25.9052467 L93.5074356,25.9052467 L103.04679,42.3222396 L112.586144,58.7302271 Z" id="Fill-5-Copy" fill="#C7BADB"></path>
        <path d="M427.302029,52.3105962 C423.512397,56.0986722 418.267468,58.441812 412.485349,58.441812 C406.703231,58.441812 401.458302,56.0986722 397.66867,52.3105962 C393.879038,48.5225202 391.534936,43.2797449 391.534936,37.5 C391.534936,31.7202551 393.879038,26.4774798 397.66867,22.6894038 C401.458302,18.9013278 406.703231,16.5484249 412.485349,16.5484249 C418.267468,16.5484249 423.512397,18.9013278 427.302029,22.6894038 C431.09166,26.4774798 433.435763,31.7202551 433.435763,37.5 C433.435763,43.2797449 431.09166,48.5225202 427.302029,52.3105962 Z M424.010518,44.3732101 C426.96018,41.4247592 428.786627,37.3437907 428.786627,32.8430096 C428.786627,29.689534 427.888054,26.73132 426.315552,24.2319708 C429.626597,27.678339 431.658152,32.3548555 431.658152,37.5 C431.658152,42.7915907 429.519159,47.5852643 426.042074,51.0511586 C422.574756,54.5268159 417.779113,56.664931 412.485349,56.664931 C407.191585,56.664931 402.395943,54.5268159 398.928625,51.0511586 C395.461307,47.5852643 393.312547,42.7915907 393.312547,37.5 C393.312547,32.3548555 395.344102,27.678339 398.645379,24.2319708 C397.092412,26.73132 396.184072,29.689534 396.184072,32.8430096 C396.184072,37.3437907 398.010518,41.4247592 400.96018,44.3732101 C403.909842,47.3118979 407.98272,49.1375944 412.485349,49.1375944 C416.987979,49.1375944 421.060856,47.3118979 424.010518,44.3732101 Z M412.485349,47.3607134 C408.471074,47.3607134 404.847483,45.7400417 402.220135,43.1137725 C399.592787,40.4875033 397.961683,36.8556366 397.961683,32.8430096 C397.961683,28.8401458 399.592787,25.2082791 402.220135,22.5820099 C404.798648,19.994793 408.363636,18.3838844 412.290008,18.335069 L412.485349,18.335069 L412.680691,18.335069 C416.616829,18.3838844 420.172051,19.994793 422.750563,22.5820099 C425.377911,25.2082791 427.009016,28.8401458 427.009016,32.8430096 C427.009016,36.8556366 425.377911,40.4875033 422.750563,43.1137725 C420.123216,45.7400417 416.499624,47.3607134 412.485349,47.3607134 Z M401.057851,61.6636293 C403.968445,63.049987 407.172051,63.9091382 410.541698,64.1532153 L410.649136,64.1629784 L410.854245,64.1727415 L410.864012,64.1727415 L410.97145,64.1825046 L411.078888,64.1922676 L411.157025,64.1922676 L411.420736,64.2020307 L411.489106,64.2117938 L411.782119,64.2215569 L411.791886,64.2215569 L411.840721,64.2215569 L412.123967,64.2215569 L412.143501,64.2215569 L412.163035,64.2215569 L412.485349,64.23132 C412.592787,64.23132 412.700225,64.2215569 412.817431,64.2215569 L412.836965,64.2215569 L412.846732,64.2215569 L413.139745,64.2215569 L413.178813,64.2215569 L413.18858,64.2215569 L413.471826,64.2117938 L413.549962,64.2020307 L413.813674,64.1922676 L413.891811,64.1922676 L413.999249,64.1825046 L414.106687,64.1727415 L414.116454,64.1727415 C417.613073,63.9677167 420.933884,63.0890393 423.942149,61.6538662 C423.121713,64.4461078 420.631104,66.6135121 418.140496,68.7906795 C415.952667,70.6944806 413.764838,72.6080448 412.495116,75 C411.196093,72.4518355 408.920361,70.4406405 406.673929,68.4684978 C404.261458,66.3499089 401.888054,64.2703723 401.057851,61.6636293 Z M397.248685,15.5330643 C395.939895,16.4507941 394.709241,17.4759177 393.576258,18.5986722 C389.220135,22.9627701 386.358377,28.8108565 385.830954,35.3228326 C383.848234,33.2237699 383.213373,29.9921895 382.578512,26.7606092 C382.021788,23.9195522 381.465064,21.0687321 380.019534,18.7744077 C382.881292,18.9208539 385.752817,17.9445457 388.585274,16.9877636 C391.613073,15.972403 394.592036,14.9668055 397.248685,15.5330643 Z M406.673929,6.53150221 C408.920361,4.54959646 411.196093,2.54816454 412.495116,0 C413.764838,2.4017183 415.952667,4.3055194 418.140496,6.20932049 C420.631104,8.37672481 423.121713,10.5538922 423.942149,13.3461338 C420.933884,11.9109607 417.613073,11.0322833 414.116454,10.8174954 L414.106687,10.8174954 L413.999249,10.8174954 L413.891811,10.8077324 L413.813674,10.8077324 L413.549962,10.7979693 L413.471826,10.7882062 L413.18858,10.7882062 L413.178813,10.7784431 L413.139745,10.7784431 L412.846732,10.7784431 L412.836965,10.7784431 L412.817431,10.7784431 L412.485349,10.7784431 L412.163035,10.7784431 L412.143501,10.7784431 L412.123967,10.7784431 L411.840721,10.7784431 L411.791886,10.7784431 L411.782119,10.7882062 L411.489106,10.7882062 L411.420736,10.7979693 L411.157025,10.8077324 L411.078888,10.8077324 L410.97145,10.8174954 L410.864012,10.8174954 L410.854245,10.8174954 L410.649136,10.8370216 L410.541698,10.8370216 C407.172051,11.0810987 403.968445,11.950013 401.057851,13.3266077 C401.888054,10.7296277 404.261458,8.65009112 406.673929,6.53150221 Z M385.830954,39.6966936 C386.368144,46.1989065 389.229902,52.046993 393.576258,56.3915647 C394.719008,57.5338454 395.959429,58.5687321 397.287754,59.4864619 C394.455297,60.1796407 391.329827,59.1057016 388.204358,58.0317626 C385.459805,57.0945066 382.715252,56.1572507 380,56.2548815 C381.562735,53.8531632 382.158527,50.8851861 382.744553,47.9464983 C383.369647,44.8027857 383.994741,41.7078886 385.830954,39.6966936 Z M436.414726,16.9780005 C439.247183,17.9347826 442.118708,18.9013278 444.980466,18.7548815 C443.534936,21.058969 442.978212,23.900026 442.421488,26.7410831 C441.77686,29.9921895 441.141998,33.2335329 439.139745,35.3423588 C438.612322,28.8206196 435.750563,22.9627701 431.39444,18.5986722 C430.261458,17.4661546 429.030804,16.441031 427.712246,15.5233012 C430.378663,14.9375163 433.367393,15.9528769 436.414726,16.9780005 Z M442.255447,47.9660245 C442.841473,50.8949492 443.437265,53.8726894 445,56.2744077 C442.284748,56.1767769 439.540195,57.1140328 436.795642,58.0512887 C433.650639,59.1252278 430.515402,60.20893 427.673178,59.4962249 C429.001503,58.5784952 430.25169,57.5436084 431.39444,56.3915647 C435.750563,52.046993 438.612322,46.1891435 439.129977,39.6771674 C440.995492,41.6981255 441.620586,44.8027857 442.255447,47.9660245 Z M412.485349,62.4446759 L412.797896,62.4446759 L412.807663,62.4446759 L413.100676,62.4446759 L413.129977,62.4446759 L413.149512,62.4446759 C416.665665,62.347045 419.996243,61.5269461 423.004508,60.1308253 L423.082645,60.091773 L423.180316,60.0527206 L423.258452,60.0136683 L423.307288,59.9843791 L423.356123,59.9648529 L423.444027,59.9160375 C423.854245,59.7207758 424.264463,59.505988 424.664914,59.2814371 L424.782119,59.2130955 C426.745304,58.1001041 428.542449,56.7235095 430.134485,55.1418901 C434.646882,50.631346 437.450038,44.3829732 437.450038,37.5 C437.450038,30.6072637 434.646882,24.368654 430.134485,19.8581099 C428.542449,18.2667274 426.72577,16.8901328 424.752817,15.7673783 L424.664914,15.7185629 C424.459805,15.6014059 424.254696,15.494012 424.059354,15.3866181 L423.97145,15.3378027 L423.795642,15.259698 L423.707739,15.2108826 L423.619835,15.1620672 L423.531931,15.1230148 L423.43426,15.0741994 L423.356123,15.0351471 L423.248685,14.9863317 L423.043576,14.8887009 L423.033809,14.8887009 L422.994741,14.8691747 C419.986476,13.4632908 416.655898,12.652955 413.149512,12.5553241 L413.129977,12.5553241 L413.100676,12.5553241 L412.807663,12.5553241 L412.797896,12.5553241 L412.485349,12.5553241 L412.182569,12.5553241 L412.163035,12.5553241 L411.870023,12.5553241 L411.840721,12.5553241 L411.830954,12.5553241 C408.314801,12.652955 404.984222,13.4632908 401.975958,14.8691747 L401.93689,14.8887009 L401.927122,14.8887009 L401.712246,14.9863317 L401.604808,15.0449102 L401.438768,15.1230148 L401.360631,15.1620672 L401.350864,15.1620672 L401.26296,15.2108826 L401.175056,15.259698 L400.999249,15.3378027 L400.911345,15.3866181 C400.706236,15.494012 400.510894,15.6014059 400.305785,15.7185629 L400.208114,15.7771414 C398.235162,16.8901328 396.428249,18.2667274 394.836213,19.8581099 C390.323817,24.368654 387.530428,30.6072637 387.530428,37.5 C387.530428,44.3829732 390.323817,50.631346 394.836213,55.1418901 C396.418482,56.7235095 398.215627,58.1001041 400.18858,59.2130955 L400.305785,59.2814371 C400.598798,59.4376464 400.882044,59.5938558 401.175056,59.7500651 L401.26296,59.7891174 L401.507137,59.9160375 L401.526672,59.9258006 L401.624343,59.9648529 L401.702479,60.0136683 L401.80015,60.0527206 L401.888054,60.091773 L401.995492,60.1405884 L402.210368,60.2382192 L402.249437,60.2577454 C405.179564,61.5757615 408.412472,62.347045 411.830954,62.4446759 L411.840721,62.4446759 L411.870023,62.4446759 L412.163035,62.4446759 L412.182569,62.4446759 L412.485349,62.4446759 Z" id="Fill-13-Copy" fill="#F3C789"></path>
    </g>
</svg>