<?xml version="1.0" encoding="utf-8"?>
<!-- Generator: Adobe Illustrator 23.0.1, SVG Export Plug-In . SVG Version: 6.00 Build 0)  -->
<svg version="1.1" id="Layer_1" xmlns="http://www.w3.org/2000/svg" xmlns:xlink="http://www.w3.org/1999/xlink" x="0px" y="0px"
	 viewBox="0 0 516.1 119.7" style="enable-background:new 0 0 516.1 119.7;" xml:space="preserve">
<style type="text/css">
	.st0{fill:#1A1A1A;}
	.st1{fill:url(#SVGID_1_);}
	.st2{fill:url(#SVGID_2_);}
	.st3{fill:url(#SVGID_3_);}
	.st4{fill:url(#SVGID_4_);}
	.st5{fill:url(#SVGID_5_);}
	.st6{fill:url(#SVGID_6_);}
</style>
<g>
	<g>
		<path class="st0" d="M165.4,94.3c-2.7,0-5.5-0.3-8.2-0.8c-2.7-0.5-5.1-1.3-7.3-2.4c-2.1-1-3.9-2.3-5.2-3.8c-1.3-1.5-2-3.2-2-5.1
			V70.6h3c1.1,6.9,3.2,11.9,6.4,14.8c3.2,2.9,7.6,4.4,13.2,4.4c3.8,0,6.8-0.8,9.1-2.5c2.3-1.6,3.4-4.1,3.4-7.3
			c0-2.9-0.9-5.3-2.8-7.2c-1.8-1.9-4.4-3.8-7.6-5.8l-12.3-7.4c-4.5-2.7-7.7-5.4-9.6-8.2c-1.9-2.8-2.8-6-2.8-9.7
			c0-5.3,2-9.4,6.1-12.5c4-3.1,9.5-4.6,16.4-4.6c2.7,0,5.5,0.3,8.2,0.8c2.7,0.5,5.1,1.3,7.3,2.4c2.1,1,3.9,2.3,5.2,3.8
			c1.3,1.5,2,3.2,2,5.1v11.7h-3c-1.1-6.9-3.3-11.9-6.4-14.8c-3.1-2.9-7.2-4.4-12.2-4.4c-3.6,0-6.4,0.9-8.5,2.6
			c-2.1,1.7-3.1,4.1-3.1,7.1c0,1.4,0.3,2.7,0.8,3.8c0.5,1.1,1.2,2.1,2.1,3.1c0.9,0.9,2,1.8,3.3,2.7c1.3,0.9,2.7,1.8,4.3,2.7
			l12.3,7.3c4.5,2.7,7.9,5.3,10,7.9c2.1,2.6,3.2,5.7,3.2,9.4c0,5.7-2.2,10.3-6.5,13.6C179.7,92.7,173.5,94.3,165.4,94.3z"/>
		<path class="st0" d="M216.6,66.8c0.1,6.9,1.4,12.4,4.1,16.4c2.6,4,6.6,6,11.9,6c6.8,0,11.8-2,14.9-6.1c3.1-4.1,4.7-10.5,4.7-19.2
			V26.5h5v37.3c0,4.7-0.5,8.9-1.4,12.6c-0.9,3.7-2.5,6.8-4.6,9.4c-2.1,2.6-4.8,4.5-8.2,5.9c-3.4,1.3-7.5,2-12.4,2
			c-18,0-27-10-27-29.8V39.6c0-3-0.4-5.4-1.3-7.3c-0.8-1.8-2.8-2.8-5.8-2.8v-3h11c1.7,0,3.2,0.2,4.4,0.7c1.2,0.4,2.1,1.1,2.8,2.2
			c0.7,1,1.2,2.3,1.5,4c0.3,1.7,0.4,3.7,0.4,6.2L216.6,66.8z"/>
		<path class="st0" d="M323.8,47.9c-1.3-6.1-3.6-10.7-7-14c-3.4-3.2-7.8-4.9-13.4-4.9c-3.1,0-5.9,0.5-8.6,1.5c-2.7,1-5,2.7-7,5.2
			c-2,2.4-3.6,5.7-4.7,9.7c-1.1,4-1.7,9.1-1.7,15.2c0,3.8,0.4,7.5,1.2,11.1c0.8,3.6,2.1,6.7,3.9,9.5c1.8,2.7,4,4.9,6.8,6.6
			c2.8,1.6,6.2,2.5,10.2,2.5c4.6,0,8.9-1.2,12.8-3.7s7.1-6,9.5-10.7l3.5,2.7c-3.1,5.5-7,9.6-11.5,12.2c-4.5,2.6-10.3,3.9-17.3,3.9
			c-5.3,0-10-0.9-14.1-2.6c-4.1-1.7-7.6-4.1-10.4-7.2c-2.8-3.1-4.9-6.7-6.4-10.8c-1.5-4.1-2.2-8.6-2.2-13.4c0-5.1,0.8-9.8,2.5-14.2
			c1.7-4.4,4-8.2,6.9-11.4c2.9-3.2,6.4-5.8,10.5-7.7c4-1.9,8.4-2.8,13.2-2.8c6.3,0,11.3,0.8,15.2,2.5c3.8,1.6,6.7,3.5,8.6,5.7
			c1.3,1.7,2.1,4,2.3,6.7c0.2,2.7,0.3,5.6,0.3,8.5L323.8,47.9L323.8,47.9z"/>
		<g>
			<path class="st0" d="M389,80c1.2,2.9,2.7,5.3,4.4,7c1.7,1.7,3.7,2.7,6,3v2.5c-0.5,0.1-1.3,0.3-2.3,0.4c-1,0.1-1.8,0.1-2.6,0.1
				c-1.6,0-3.3-0.1-5.2-0.5c-1.8-0.3-3.6-0.9-5.4-1.8c-1.8-0.9-3.4-2.2-5-3.9c-1.6-1.7-3-4-4.2-6.9l-2.3-5.6h-26.8l-8.3,18.2h-5
				l29.5-66.1h4.5L389,80z M347.9,69.9h22.8l-11.1-26.1L347.9,69.9z"/>
			<path class="st0" d="M396.3,38.3c-1.6-3.7-3.2-6.4-4.7-7.9c-1.5-1.5-3.3-2.4-5.3-2.7v-2c0.3,0,0.9,0,2-0.1c1-0.1,1.8-0.1,2.3-0.1
				c1.7,0,3.5,0.1,5.4,0.4c1.8,0.3,3.6,0.8,5.4,1.7c1.7,0.9,3.4,2.1,5,3.8c1.6,1.7,3,3.9,4.2,6.8l15.9,37.5l21.2-49.2h5l-28.8,67.1
				h-4L396.3,38.3z"/>
		</g>
		<path class="st0" d="M475.7,66.8c0.1,6.9,1.4,12.4,4.1,16.4c2.6,4,6.6,6,11.9,6c6.8,0,11.8-2,14.9-6.1c3.1-4.1,4.7-10.5,4.7-19.2
			V26.5h5v37.3c0,4.7-0.5,8.9-1.4,12.6c-0.9,3.7-2.5,6.8-4.6,9.4c-2.1,2.6-4.8,4.5-8.2,5.9c-3.4,1.3-7.5,2-12.4,2
			c-18,0-27-10-27-29.8V39.6c0-3-0.4-5.4-1.3-7.3c-0.8-1.8-2.8-2.8-5.8-2.8v-3h11c1.7,0,3.2,0.2,4.4,0.7c1.2,0.4,2.1,1.1,2.8,2.2
			c0.7,1,1.2,2.3,1.5,4c0.3,1.7,0.4,3.7,0.4,6.2L475.7,66.8z"/>
	</g>
	<g>
		<g>
			<g>
				
					<linearGradient id="SVGID_1_" gradientUnits="userSpaceOnUse" x1="3.6077" y1="83.8904" x2="113.6378" y2="83.8904" gradientTransform="matrix(0.9998 1.800000e-02 1.800000e-02 -0.9998 -4.8625 128.9868)">
					<stop  offset="0" style="stop-color:#72C053"/>
					<stop  offset="0.2857" style="stop-color:#00ABA4"/>
					<stop  offset="0.4945" style="stop-color:#1B75BC"/>
					<stop  offset="0.7253" style="stop-color:#00ABA4"/>
					<stop  offset="1" style="stop-color:#72C053"/>
				</linearGradient>
				<path class="st1" d="M9.1,81.2c-2.9-6.9-4.5-14.4-4.3-22.4C5,43.6,11.4,30,21.6,20.2c10.2-9.8,24-15.7,39.2-15.4
					C76.1,5,89.7,11.4,99.5,21.6c2.2,2.2,4.1,4.7,5.9,7.2L84.5,75.4L69.7,38.6c-1.1-2.8-2.4-5.1-3.9-6.7c-1.5-1.7-3.1-2.9-4.8-3.8
					c-1.7-0.9-3.4-1.5-5.2-1.8c-1.8-0.3-3.5-0.5-5.2-0.5c-0.5,0-1.2,0-2.2,0.1c-1,0-1.7,0.1-1.9,0.1l0,1.2l0.3,0.9
					c1.8,0.3,3.4,1.2,4.7,2.6c1.4,1.5,2.9,4.1,4.4,7.8l19.9,49.8l0,0l0.4,1l1.5,3.7l3.9,0.1l24.5-54.7l0,0l0.7-1.6l1.4-3.1l0.9-2
					l1.5-3.3c-0.9-1.5-1.9-2.9-3-4.3C96.9,9.6,80,0.4,60.9,0C27.9-0.6,0.6,25.7,0,58.8c-0.2,10.1,2.2,19.7,6.5,28.2l1.2-2.6
					L9.1,81.2z"/>
				
					<linearGradient id="SVGID_2_" gradientUnits="userSpaceOnUse" x1="49.4565" y1="102.3439" x2="49.8217" y2="102.3439" gradientTransform="matrix(0.9998 1.800000e-02 1.800000e-02 -0.9998 -4.8625 128.9868)">
					<stop  offset="0" style="stop-color:#72C053"/>
					<stop  offset="0.2857" style="stop-color:#00ABA4"/>
					<stop  offset="0.4945" style="stop-color:#1B75BC"/>
					<stop  offset="0.7253" style="stop-color:#00ABA4"/>
					<stop  offset="1" style="stop-color:#72C053"/>
				</linearGradient>
				<path class="st2" d="M46.4,27.9c0.1,0,0.2,0,0.4,0.1l-0.3-0.9L46.4,27.9z"/>
				
					<linearGradient id="SVGID_3_" gradientUnits="userSpaceOnUse" x1="109.3213" y1="96.168" x2="112.2087" y2="96.168" gradientTransform="matrix(0.9998 1.800000e-02 1.800000e-02 -0.9998 -4.8625 128.9868)">
					<stop  offset="0" style="stop-color:#72C053"/>
					<stop  offset="0.2857" style="stop-color:#00ABA4"/>
					<stop  offset="0.4945" style="stop-color:#1B75BC"/>
					<stop  offset="0.7253" style="stop-color:#00ABA4"/>
					<stop  offset="1" style="stop-color:#72C053"/>
				</linearGradient>
				<polygon class="st3" points="106.8,36.6 106.1,38.2 106.1,38.2 108.2,33.5 109.1,31.5 108.2,33.5 				"/>
				
					<linearGradient id="SVGID_4_" gradientUnits="userSpaceOnUse" x1="79.9599" y1="41.8084" x2="80.3747" y2="41.8084" gradientTransform="matrix(0.9998 1.800000e-02 1.800000e-02 -0.9998 -4.8625 128.9868)">
					<stop  offset="0" style="stop-color:#72C053"/>
					<stop  offset="0.2857" style="stop-color:#00ABA4"/>
					<stop  offset="0.4945" style="stop-color:#1B75BC"/>
					<stop  offset="0.7253" style="stop-color:#00ABA4"/>
					<stop  offset="1" style="stop-color:#72C053"/>
				</linearGradient>
				<path class="st4" d="M75.8,88.1l0.4,1L75.8,88.1z"/>
			</g>
			
				<linearGradient id="SVGID_5_" gradientUnits="userSpaceOnUse" x1="13.138" y1="56.7112" x2="123.2926" y2="56.7112" gradientTransform="matrix(0.9998 1.800000e-02 1.800000e-02 -0.9998 -4.8625 128.9868)">
				<stop  offset="0" style="stop-color:#72C053"/>
				<stop  offset="0.2857" style="stop-color:#00ABA4"/>
				<stop  offset="0.4945" style="stop-color:#1B75BC"/>
				<stop  offset="0.7253" style="stop-color:#00ABA4"/>
				<stop  offset="1" style="stop-color:#72C053"/>
			</linearGradient>
			<path class="st5" d="M113.1,32.5l-1.2,2.6l-1.4,3.1c3,6.9,4.5,14.6,4.4,22.6c-0.3,15.2-6.7,28.9-16.8,38.7
				c-10.2,9.8-24,15.7-39.3,15.4c-15.2-0.3-28.9-6.7-38.7-16.8c-2.2-2.3-4.2-4.8-6-7.4l21-46.5L50,81.1c1.1,2.8,2.4,5.1,3.9,6.7
				c1.5,1.7,3.1,2.9,4.8,3.8c1.7,0.9,3.4,1.5,5.2,1.8c1.8,0.3,3.5,0.5,5.2,0.5c0.5,0,1.2,0,2.2-0.1c1,0,1.6-0.1,1.9-0.1l0-1.2
				l-0.4-0.9c-1.8-0.3-3.4-1.2-4.7-2.6c-1.4-1.5-2.9-4.1-4.4-7.8L43.9,31.6l-1.5-3.8l-0.4-1L38,26.8L13.5,81.3L11.3,86L9,91.3
				c0.8,1.4,1.7,2.7,2.7,3.9c0.1,0.1,0.2,0.3,0.3,0.4c10.7,14.3,27.6,23.6,46.8,24c33,0.6,60.3-25.7,60.9-58.8
				C119.9,50.7,117.5,41,113.1,32.5z"/>
			
				<linearGradient id="SVGID_6_" gradientUnits="userSpaceOnUse" x1="77.0774" y1="38.2568" x2="77.4451" y2="38.2568" gradientTransform="matrix(0.9998 1.800000e-02 1.800000e-02 -0.9998 -4.8625 128.9868)">
				<stop  offset="0" style="stop-color:#72C053"/>
				<stop  offset="0.2857" style="stop-color:#00ABA4"/>
				<stop  offset="0.4945" style="stop-color:#1B75BC"/>
				<stop  offset="0.7253" style="stop-color:#00ABA4"/>
				<stop  offset="1" style="stop-color:#72C053"/>
			</linearGradient>
			<path class="st6" d="M72.9,91.7l0.4,0.9l0-0.8C73.1,91.7,73,91.7,72.9,91.7z"/>
		</g>
	</g>
</g>
</svg>
